<?xml version="1.0" standalone="no"?><!DOCTYPE svg PUBLIC "-//W3C//DTD SVG 1.1//EN" "http://www.w3.org/Graphics/SVG/1.1/DTD/svg11.dtd" ><svg xmlns="http://www.w3.org/2000/svg"><metadata>Pictonic fonts.</metadata><defs><font horiz-adv-x="512"><font-face font-family="pictonic" font-weight="400" font-stretch="normal" units-per-em="512" panose-1="2 0 5 9 0 0 0 0 0 0" ascent="409" descent="-103" bbox="-0.162109 -104.006 512.641 409.823" underline-thickness="0" underline-position="0" unicode-range="U+E001-E367"></font-face><missing-glyph horiz-adv-x="0"></missing-glyph><glyph glyph-name="cr2-add" unicode="&#xe001;" d="M256 357.4c-112.705 0 -204.4 -91.6914 -204.4 -204.4c0 -112.71 91.6953 -204.4 204.4 -204.4c112.704 0 204.4 91.6904 204.4 204.4s-91.6963 204.4 -204.4 204.4zM256 408.5v0c141.109 0 255.5 -114.391 255.5 -255.5s-114.391 -255.5 -255.5 -255.5 s-255.5 114.391 -255.5 255.5s114.391 255.5 255.5 255.5zM281.55 282.027v-104.755h102.2v-51.1006h-102.2v-102.2h-51.0996v102.2h-102.2v51.1006h102.2v104.755h51.0996z"></glyph><glyph glyph-name="cr2-delete" unicode="&#xe002;" d="M256 356.056c-111.963 0 -203.056 -91.0879 -203.056 -203.056s91.0928 -203.056 203.056 -203.056s203.056 91.0879 203.056 203.056c0 111.969 -91.0928 203.056 -203.056 203.056zM256 406.819v0c140.181 0 253.819 -113.639 253.819 -253.819 s-113.639 -253.819 -253.819 -253.819s-253.819 113.639 -253.819 253.819s113.639 253.819 253.819 253.819zM149.212 80.3145l71.7881 71.7881l-73.582 73.5889l35.8965 35.8916l73.583 -73.583l71.793 71.7881l35.8916 -35.8965l-71.7881 -71.7891l71.7881 -71.793 l-35.8916 -35.8916l-71.793 71.7881l-71.7891 -71.7881z"></glyph><glyph glyph-name="clupload" unicode="&#xe003;" d="M256 164.887l110.472 -136.62h-71.4355v-117.104h-78.0684v117.105h-71.4385zM423.064 248.208c49.4033 -3.38086 88.4355 -44.5049 88.4355 -94.7656c0 -52.4727 -42.542 -95.0137 -95.0137 -95.0137l-36.0342 -0.046875l-101.272 125.247l-23.1797 28.665 l-23.1797 -28.6641l-101.526 -125.56l-34.9805 -0.0410156c-52.9189 0 -95.8135 42.8955 -95.8135 95.8125c0 42.7256 27.9658 78.9004 66.5859 91.2549c-1.77051 8.47559 -2.71094 17.25 -2.71094 26.249c0 70.5547 57.1963 123.492 127.75 123.492 c44.0508 0 82.8906 -20.6396 105.859 -53.3125c12.6709 6.84473 27.4004 10.7285 43.1826 10.7285c47.0371 0 85.166 -33.8711 85.166 -80.9082c0 -8.0293 -1.19043 -15.7686 -3.26855 -23.1377z"></glyph><glyph glyph-name="plus" unicode="&#xe004;" d="M306.594 200.738h202.376v-101.188h-202.376v-202.377h-101.188v202.378h-202.376v101.188h202.375v207.436h101.188z"></glyph><glyph glyph-name="share" unicode="&#xe005;" d="M505.704 -12.8516c0 -49.5195 -40.1416 -89.6484 -89.6396 -89.6484c-49.5195 0 -89.6641 40.1299 -89.6641 89.6484c0 1.63379 0.161133 3.20508 0.251953 4.81934l-177.463 90.4775c-14.8965 -11.0381 -33.2705 -17.6592 -53.2412 -17.6592 c-49.5107 0 -89.6523 40.1543 -89.6523 89.6729c0 49.498 40.1426 89.6318 89.6523 89.6318c22.1777 0 42.4336 -8.09961 58.0889 -21.418l172.777 88.0957c-0.239258 2.65039 -0.414062 5.33691 -0.414062 8.08008c0 49.5195 40.1455 89.6523 89.6641 89.6523 c49.498 0 89.6396 -40.1338 89.6396 -89.6523c0 -49.498 -40.1416 -89.6514 -89.6396 -89.6514c-22.0771 0 -42.2354 8.02148 -57.8584 21.2266l-173 -88.209c0.223633 -2.57227 0.385742 -5.14453 0.385742 -7.75391c0 -4.66602 -0.462891 -9.19336 -1.14551 -13.668 l171.387 -87.3682c15.9238 14.4736 37.0088 23.3818 60.2314 23.3818c49.498 -0.00195312 89.6396 -40.1562 89.6396 -89.6582z"></glyph><glyph glyph-name="cog-thick" unicode="&#xe006;" d="M477.432 204.1c18.8184 0 34.0684 -11.4365 34.0693 -25.5498v-51.1006c0 -14.1123 -15.25 -25.5488 -34.0684 -25.5488h-23.4688c-4.78613 -18.5801 -12.1562 -36.1104 -21.6328 -52.248l16.7373 -16.7373c13.3076 -13.3037 16.002 -32.1768 6.02246 -42.1523 l-36.1289 -36.1348c-9.98047 -9.98047 -28.8535 -7.28613 -42.1592 6.02344l-16.542 16.543c-16.3877 -9.73633 -34.2324 -17.2822 -53.1611 -22.1572v-23.4688c0 -18.8184 -11.4365 -34.0684 -25.5488 -34.0684h-51.1006c-14.1123 0 -25.5498 15.25 -25.5498 34.0684 v23.4688c-18.9238 4.87012 -36.7686 12.416 -53.1562 22.1572l-16.5469 -16.543c-13.3047 -13.3086 -32.1777 -16.0029 -42.1572 -6.02344l-36.1299 36.1299c-9.98145 9.97949 -7.28613 28.8525 6.02832 42.1572l16.7314 16.7373 c-9.47656 16.1377 -16.8467 33.668 -21.6328 52.248h-23.4688c-18.8184 0 -34.0684 11.4365 -34.0684 25.5488v51.1006c0 14.1133 15.25 25.5498 34.0684 25.5498h23.4678c4.87109 18.9287 12.4209 36.7734 22.1572 53.1611l-16.542 16.542 c-13.3096 13.3047 -16.0029 32.1777 -6.02344 42.1572l36.1289 36.1299c9.98047 9.98145 28.8535 7.28613 42.1572 -6.02246l16.7432 -16.7373c16.1387 9.48047 33.6641 16.8467 52.2432 21.6328v23.4688c0 18.8184 11.4365 34.0684 25.5498 34.0684h51.1006 c14.1123 0 25.5488 -15.25 25.5498 -34.0684v-23.4697c18.5801 -4.78516 36.1094 -12.1562 52.248 -21.6377l16.7373 16.7432c13.3037 13.3086 32.1777 16.0029 42.1572 6.02246l36.1299 -36.1299c9.97949 -9.97949 7.28516 -28.8525 -6.01953 -42.1572l-16.5479 -16.5469 c9.74121 -16.3877 17.2871 -34.2275 22.1572 -53.1562h23.4688zM256 25.249c70.4424 0 127.751 57.3086 127.751 127.751s-57.3086 127.75 -127.751 127.75s-127.75 -57.3076 -127.75 -127.75s57.3076 -127.751 127.75 -127.751z"></glyph><glyph glyph-name="star-empty" unicode="&#xe007;" d="M256 301.633l-40.7168 -83.3896l-9.84766 -20.166l-22.2031 -3.26172l-91.9893 -13.5117l66.8691 -65.8789l15.7969 -15.5625l-3.70996 -21.8633l-15.6895 -92.4385l81.5264 43.3184l19.9639 10.6084l19.9648 -10.6094l81.5264 -43.3184l-15.6885 92.4385 l-3.71094 21.8633l15.7959 15.5625l66.8701 65.8789l-91.9902 13.5117l-22.2021 3.26172l-9.84766 20.166zM256 398.597v0l78.9512 -161.687l176.549 -25.9346l-127.749 -125.859l30.1602 -177.712l-157.911 83.9033l-157.91 -83.9043l30.1602 177.713l-127.75 125.859 l176.549 25.9346z"></glyph><glyph glyph-name="multiple" unicode="&#xe008;" d="M173.645 150.891l-173.145 173.153l84.4678 84.4561l173.146 -173.145l168.931 168.924l84.4551 -84.4688l-168.923 -168.92l168.923 -168.936l-84.4551 -84.4551l-168.932 168.924l-168.924 -168.924l-84.4678 84.4668z"></glyph><glyph glyph-name="cr-add" unicode="&#xe009;" d="M256 408.5c141.107 0 255.5 -114.393 255.5 -255.5s-114.393 -255.5 -255.5 -255.5s-255.5 114.393 -255.5 255.5s114.393 255.5 255.5 255.5zM362.458 130.644v42.583h-85.166v87.2969h-42.583v-87.2969h-85.167v-42.583h85.167v-85.165h42.583v85.165h85.166z"></glyph><glyph glyph-name="cr-delete" unicode="&#xe00a;" d="M256 408.5c141.107 0 255.5 -114.393 255.5 -255.5s-114.393 -255.5 -255.5 -255.5s-255.5 114.393 -255.5 255.5s114.393 255.5 255.5 255.5zM347.084 92.0234l-60.2197 60.2246l60.2197 60.2188l-30.1074 30.1123l-60.2236 -60.2197l-61.7246 61.7246 l-30.1123 -30.1084l61.7246 -61.7285l-60.2197 -60.2197l30.1123 -30.1113l60.2197 60.2197l60.2236 -60.2197z"></glyph><glyph glyph-name="cr-warning" unicode="&#xe00b;" d="M256 408.5c141.107 0 255.5 -114.393 255.5 -255.5s-114.393 -255.5 -255.5 -255.5s-255.5 114.393 -255.5 255.5s114.393 255.5 255.5 255.5zM286.241 34.9102v41.877h-60.4824v-41.877h60.4824zM280.402 102.956l6.88672 168.134h-62.5781l6.88574 -168.134h48.8057z "></glyph><glyph glyph-name="cr-ok" unicode="&#xe00c;" d="M256 408.5c141.107 0 255.5 -114.393 255.5 -255.5s-114.393 -255.5 -255.5 -255.5s-255.5 114.393 -255.5 255.5s114.393 255.5 255.5 255.5zM211.364 46.542l178.023 184.047l-28.9932 28.8691l-149.03 -154.273l-59.7627 64.9521l-28.9922 -29.7705z"></glyph><glyph glyph-name="box-add" unicode="&#xe00d;" d="M0.5 408.5h511v-511h-511v511zM362.458 130.644v42.583h-85.166v87.2969h-42.583v-87.2969h-85.167v-42.583h85.167v-85.165h42.583v85.165h85.166z"></glyph><glyph glyph-name="box-remove" unicode="&#xe00e;" d="M0.5 408.5h511v-511h-511v511zM362.458 131.708v42.583h-85.166h-42.583h-85.167v-42.583h212.916z"></glyph><glyph glyph-name="box-help" unicode="&#xe00f;" d="M0.5 408.5h511v-511h-511v511zM275.195 42.3496v34.8496h-37.1025v-34.8496h37.1025zM327.302 188.892c1.02344 4.44141 1.53027 9.17871 1.53223 14.2109c0 9.10352 -1.7959 17.3994 -5.38086 24.8936c-3.59277 7.49316 -8.5918 13.8643 -15.0117 19.1123 c-6.43066 5.24805 -14.0811 9.31543 -22.9727 12.2061c-8.8916 2.88965 -18.6309 4.33691 -29.2266 4.33691c-10.0635 0 -19.3789 -1.50195 -27.9453 -4.5c-8.56543 -2.99414 -16.085 -7.27832 -22.5635 -12.8467c-6.47949 -5.56738 -11.6689 -12.3926 -15.5781 -20.4766 c-3.90918 -8.0791 -6.2373 -17.1572 -6.98633 -27.2168h34.208c1.92871 12.3086 6.10547 21.625 12.5254 27.9404c6.42871 6.31738 15.2031 9.47852 26.3398 9.47852c5.45703 0 10.4375 -0.831055 14.9375 -2.49121c4.49219 -1.65918 8.35156 -3.9873 11.5615 -6.98633 c3.21094 -2.99805 5.67188 -6.64062 7.38574 -10.9199c1.71289 -4.2832 2.57031 -8.99512 2.57031 -14.1348c0 -3.74609 -0.458008 -7.08984 -1.36426 -10.0342c-0.907227 -2.94531 -2.2793 -5.72656 -4.0918 -8.35059 c-1.82227 -2.62402 -4.12598 -5.30273 -6.91211 -8.03027c-2.77734 -2.72754 -5.99609 -5.75488 -9.63086 -9.07422l-10.2803 -9.15723c-3.75098 -3.42676 -6.93555 -6.84863 -9.55566 -10.2754s-4.79102 -7.30762 -6.50391 -11.6406 c-1.71484 -4.33789 -2.9707 -9.23535 -3.76855 -14.6953c-0.806641 -5.45996 -1.20605 -11.8848 -1.20605 -19.2715h32.9189c0.0996094 6.74512 0.589844 12.2266 1.44727 16.459c0.856445 4.22949 2.32812 8.03027 4.41602 11.4033 c2.08789 3.37207 4.89062 6.68555 8.4248 9.95508c3.53516 3.26855 8.08398 7.20215 13.6572 11.8018c5.23926 4.28418 9.68848 8.51758 13.3232 12.6924c3.64355 4.1748 6.58789 8.375 8.83301 12.6035c2.25293 4.23047 3.88281 8.56348 4.89746 13.0078z"></glyph><glyph glyph-name="box-ok" unicode="&#xe010;" d="M0.5 408.5h511v-511h-511v511zM211.362 46.542l178.026 184.047l-28.9922 28.8691l-149.033 -154.273l-59.7578 64.9521l-28.9941 -29.7705z"></glyph><glyph glyph-name="box-warning" unicode="&#xe011;" d="M0.5 408.5h511v-511h-511v511zM286.241 34.9102v41.877h-60.4824v-41.877h60.4824zM280.402 102.956l6.88672 168.134h-62.5781l6.88574 -168.134h48.8057z"></glyph><glyph glyph-name="box-delete" unicode="&#xe012;" d="M0.5 408.5h511v-511h-511v511zM347.084 92.0234l-60.2197 60.2246l60.2197 60.2188l-30.1074 30.1123l-60.2236 -60.2197l-61.7246 61.7246l-30.1123 -30.1084l61.7246 -61.7285l-60.2197 -60.2197l30.1123 -30.1113l60.2197 60.2197l60.2236 -60.2197z"></glyph><glyph glyph-name="home" unicode="&#xe013;" d="M511.5 195.584h-42.582v-276.793h-127.751v170.333h-170.887v-170.333h-127.197v276.793h-42.583l255.5 191.625z"></glyph><glyph glyph-name="outgoing-link" unicode="&#xe014;" d="M511.5 408.438v-222.387l-88.6133 88.6152l-153.729 -153.721l-45.1504 45.1572l153.725 153.718l-88.6182 88.6172h222.386zM415.586 -38.5781v159.648h63.8594v-223.508h-478.945v478.945h223.632v-63.8594h-159.772v-351.227h351.227z"></glyph><glyph glyph-name="link" unicode="&#xe015;" d="M269.838 81.4932c16.8926 -24.2773 14.6377 -57.8447 -7.01172 -79.502l-86.2578 -86.2461c-24.3232 -24.3271 -63.7627 -24.3271 -88.084 0l-69.7383 69.7285c-24.3232 24.3262 -24.3232 63.7578 0 88.084l86.2539 86.2734 c21.6494 21.6475 55.2158 23.9023 79.5059 7.00977l-116.57 -116.587c-13.5186 -13.5068 -13.2852 -35.6367 0.499023 -49.4512l35.3818 -35.3545c13.8057 -13.7988 35.9375 -14.0469 49.4473 -0.506836zM358.741 341.089l-116.565 -116.57 c-16.8916 24.2695 -14.6416 57.8271 7.01172 79.501l86.25 86.2471c24.3271 24.3115 63.7734 24.3115 88.0752 0l69.7373 -69.7451c24.3281 -24.3174 24.3281 -63.7568 0 -88.0674l-86.2422 -86.2627c-21.6484 -21.6416 -55.2275 -23.9121 -79.5049 -7.01172l116.57 116.569 c13.5098 13.499 13.2861 35.6641 -0.5 49.4453l-35.3789 35.3799c-13.7998 13.7891 -35.9307 14.0137 -49.4531 0.514648zM336.829 257.679l23.834 -23.8535c5.64941 -5.63086 5.06348 -15.3779 -1.29883 -21.7412l-162.445 -162.455 c-6.35449 -6.33691 -16.0928 -6.93555 -21.7324 -1.29688l-23.8408 23.8535c-5.64648 5.63965 -5.05566 15.3701 1.29785 21.7246l162.454 162.472c6.3623 6.34473 16.0928 6.91992 21.7314 1.29688z"></glyph><glyph glyph-name="tag" unicode="&#xe016;" d="M43.8486 404l154.498 -19.5947l313.153 -303.456l-173.401 -178.949l-313.154 303.455l-24.4443 153.808zM156.383 251.582c15.9648 16.4678 15.5488 42.7578 -0.926758 58.7178c-16.4688 15.9609 -42.7588 15.5537 -58.7227 -0.915039 c-15.9658 -16.4756 -15.5508 -42.7656 0.922852 -58.7266c16.4756 -15.9688 42.7627 -15.5527 58.7266 0.923828z"></glyph><glyph glyph-name="bookmark-4" unicode="&#xe017;" d="M0.5 364.449h511l-123.347 -211.449l123.347 -211.449h-511v422.898z"></glyph><glyph glyph-name="mapmarker4-01" unicode="&#xe018;" d="M433.739 408.5c24.4385 0 44.4346 -19.9961 44.4355 -44.4346v-266.609c0 -24.4395 -19.9971 -44.4346 -44.4346 -44.4346h-44.4355v-155.521l-166.631 155.521h-144.413c-24.4385 0 -44.4346 19.9961 -44.4346 44.4346v266.609 c0 24.4385 19.9961 44.4346 44.4346 44.4346h355.479zM292.52 136.784v187.954h-22.9199l-50.1221 -15.999l6.93066 -26.6572l33.5908 9.33008v-154.628h32.5205z"></glyph><glyph glyph-name="mapmarker4-02" unicode="&#xe019;" d="M433.739 408.5c24.4385 0 44.4346 -19.9961 44.4355 -44.4346v-266.609c0 -24.4395 -19.9971 -44.4346 -44.4346 -44.4346h-44.4355v-155.521l-166.631 155.521h-144.413c-24.4385 0 -44.4346 19.9961 -44.4346 44.4346v266.609 c0 24.4385 19.9961 44.4346 44.4346 44.4346h355.479zM323.45 136.12v28.791h-88.7803l38.3926 31.9941c33.0566 26.9258 48.5225 42.9209 48.5225 72.5146c0 33.3223 -24.2656 55.9824 -61.5859 55.9824c-33.3262 0 -50.9219 -14.1289 -68.7832 -39.1895l23.1943 -18.1289 c14.3975 18.6631 26.127 27.9932 43.1885 27.9932c17.0605 0 30.1221 -10.6621 30.1221 -29.0557c0 -16.7988 -9.33008 -28.7969 -34.9209 -50.3896l-64.248 -54.6543v-25.8574h134.898z"></glyph><glyph glyph-name="mapmarker4-03" unicode="&#xe01a;" d="M433.739 408.5c24.4385 0 44.4346 -19.9961 44.4355 -44.4346v-266.609c0 -24.4395 -19.9971 -44.4346 -44.4346 -44.4346h-44.4355v-155.521l-166.631 155.521h-144.413c-24.4385 0 -44.4346 19.9961 -44.4346 44.4346v266.609 c0 24.4385 19.9961 44.4346 44.4346 44.4346h355.479zM259.065 135.851c38.6572 0 65.3135 24.5283 65.3135 59.1865c0 34.9229 -26.3916 49.0537 -54.918 52.7861l51.9893 53.3184v24.5264h-123.435v-28.5254h80.7793l-50.3867 -53.5859l5.33105 -20.5264h15.1953 c26.3926 0 42.9258 -10.3975 42.9258 -29.0615c0 -17.3291 -13.8682 -28.5234 -32.2617 -28.5234c-20.7939 0 -35.7227 8.79785 -49.0537 24.5254l-22.9268 -21.3281c15.7275 -19.1914 38.9219 -32.792 71.4473 -32.792z"></glyph><glyph glyph-name="mapmarker4-04" unicode="&#xe01b;" d="M215.742 205.566l61.3223 73.8467v-73.8467h-61.3223zM478.174 364.065v-266.609c0 -24.4385 -19.9961 -44.4346 -44.4346 -44.4346h-44.4355v-155.521l-166.63 155.521h-144.413c-24.4385 0 -44.4346 19.9951 -44.4346 44.4346v266.609 c0 24.4385 19.9961 44.4346 44.4346 44.4346h355.479c24.4375 0 44.4336 -19.9961 44.4336 -44.4346zM335.176 205.566h-26.6514v119.172h-27.998l-103.704 -122.639l6.13184 -23.458h94.1094v-41.8564h31.46v41.8564h26.6514z"></glyph><glyph glyph-name="mapmarker4-05" unicode="&#xe01c;" d="M433.739 408.5c24.4385 0 44.4346 -19.9961 44.4355 -44.4346v-266.609c0 -24.4395 -19.9971 -44.4346 -44.4346 -44.4346h-44.4355v-155.521l-166.631 155.521h-144.413c-24.4385 0 -44.4346 19.9961 -44.4346 44.4346v266.609 c0 24.4385 19.9961 44.4346 44.4346 44.4346h355.479zM255.733 135.851c41.3252 0 69.0498 25.0625 69.0488 63.4521c0 39.7227 -28.2637 58.917 -64.7842 58.917c-12.5303 0 -20.7939 -2.13281 -29.5918 -5.33105l2.93066 43.7217h83.1787v29.0576h-111.437 l-5.33301 -91.4434l19.7285 -13.0605c9.59766 4.53027 21.0615 8.26367 34.3926 8.26367c23.1953 0 38.6572 -11.998 38.6572 -31.1924c0 -19.7266 -14.6631 -32.5234 -37.0586 -32.5234c-17.3291 0 -33.0566 8.53125 -47.9873 22.3936l-20.2617 -23.7275 c17.5967 -17.0615 39.9893 -28.5273 68.5166 -28.5273z"></glyph><glyph glyph-name="mapmarker4-07" unicode="&#xe01d;" d="M433.739 408.5c24.4385 0 44.4346 -19.9961 44.4355 -44.4346v-266.609c0 -24.4395 -19.9971 -44.4346 -44.4346 -44.4346h-44.4355v-155.521l-166.631 155.521h-144.413c-24.4385 0 -44.4346 19.9961 -44.4346 44.4346v266.609 c0 24.4385 19.9961 44.4346 44.4346 44.4346h355.479zM321.585 299.277v24.792h-131.167v-28.791h93.8398l-83.71 -157.826h36.791z"></glyph><glyph glyph-name="mapmarker4-06" unicode="&#xe01e;" d="M295.193 196.636c0 -19.4619 -14.1348 -34.125 -37.3271 -34.125c-23.4609 0 -38.6572 14.3984 -38.6572 33.8555c0 18.1299 14.665 33.0615 37.8584 33.0615c23.1943 0.000976562 38.126 -13.8633 38.126 -32.792zM478.174 364.065v-266.609 c0 -24.4385 -19.9961 -44.4346 -44.4346 -44.4346h-44.4355v-155.521l-166.63 155.521h-144.413c-24.4385 0 -44.4346 19.9951 -44.4346 44.4346v266.609c0 24.4385 19.9961 44.4346 44.4346 44.4346h355.479c24.4375 0 44.4336 -19.9961 44.4336 -44.4346zM327.98 197.969 c0 37.5908 -29.0566 58.9189 -65.3154 58.9189c-21.8613 0 -34.6582 -9.06348 -44.5215 -18.6631c1.59961 34.125 17.0625 59.1846 44.791 59.1846c16.2598 0 27.459 -6.13086 40.5215 -16.2588l17.5957 25.3232c-16.2637 13.0654 -32.792 20.7939 -57.0537 20.7939 c-52.7861 0 -79.9785 -44.5205 -79.9785 -101.84c0 -37.8555 8.53125 -57.3174 22.6602 -71.7158c12.5303 -12.2627 29.0615 -19.458 51.9873 -19.458c39.1904 0 69.3135 26.123 69.3135 63.7148z"></glyph><glyph glyph-name="mapmarker4-08" unicode="&#xe01f;" d="M222.676 273.149c0 14.3975 13.3311 26.127 33.3262 26.127c19.9941 0 33.3242 -11.7295 33.3242 -26.3945c0 -16.2617 -14.1289 -27.7236 -33.3242 -27.7236c-19.1973 0.000976562 -33.3262 11.4629 -33.3262 27.9912zM256.002 219.032 c22.1289 0 39.1914 -11.1982 39.1914 -28.5273c0 -15.7305 -14.668 -28.2598 -39.1914 -28.2598c-24.5303 0 -39.1924 12.5303 -39.1924 28.2598c0 17.3291 17.0625 28.5273 39.1924 28.5273zM478.174 364.065v-266.609c0 -24.4385 -19.9961 -44.4346 -44.4346 -44.4346 h-44.4355v-155.521l-166.63 155.521h-144.413c-24.4385 0 -44.4346 19.9951 -44.4346 44.4346v266.609c0 24.4385 19.9961 44.4346 44.4346 44.4346h355.479c24.4375 0 44.4336 -19.9961 44.4336 -44.4346zM327.183 189.173c0 22.3936 -13.3311 35.7246 -33.5957 45.0547 c15.7354 8.26465 27.1992 20.7949 27.1992 41.8555c0 28.793 -27.459 50.6533 -64.7842 50.6533c-37.3271 0 -64.7861 -21.8594 -64.7861 -50.6533c0 -21.0605 11.4648 -33.5908 27.1953 -41.8555c-21.0635 -8.79785 -33.5908 -22.9287 -33.5908 -45.8555 c0 -32.2588 30.3926 -53.5889 71.1816 -53.5889c40.7881 0 71.1807 20.7988 71.1807 54.3896z"></glyph><glyph glyph-name="mapmarker4-09" unicode="&#xe020;" d="M292.789 264.352c0 -18.3945 -14.1289 -33.8594 -37.8564 -33.8594c-23.1934 0 -38.123 13.8643 -38.123 33.5947c0 19.4619 13.8643 34.9229 37.0586 34.9229c23.7246 0 38.9209 -14.9316 38.9209 -34.6582zM478.174 364.065v-266.609 c0 -24.4385 -19.9961 -44.4346 -44.4346 -44.4346h-44.4355v-155.521l-166.63 155.521h-144.413c-24.4385 0 -44.4346 19.9951 -44.4346 44.4346v266.609c0 24.4385 19.9961 44.4346 44.4346 44.4346h355.479c24.4375 0 44.4336 -19.9961 44.4336 -44.4346zM327.98 236.094 c0 37.0547 -8.80078 57.583 -22.6592 71.4473c-13.0625 13.0615 -28.2578 19.7266 -51.7217 19.7266c-41.3232 0 -69.582 -27.9922 -69.582 -64.7812c0 -36.2607 26.3926 -59.4541 66.1162 -59.4541c19.9941 0 34.3916 8.53125 43.7217 19.7305 c-1.06738 -34.3936 -17.5967 -58.6504 -45.0566 -58.6504c-15.9951 0 -28.5234 5.59766 -42.6553 17.5918l-17.8604 -25.0605c15.7275 -13.0605 33.8574 -22.3906 59.7178 -22.3906c50.1211 0.000976562 79.9795 41.5889 79.9795 101.841z"></glyph><glyph glyph-name="mapmarker4-A" unicode="&#xe021;" d="M255.468 285.545l32.2607 -74.6455h-64.2549zM478.174 364.065v-266.609c0 -24.4385 -19.9961 -44.4346 -44.4346 -44.4346h-44.4355v-155.521l-166.63 155.521h-144.413c-24.4385 0 -44.4346 19.9951 -44.4346 44.4346v266.609 c0 24.4385 19.9961 44.4346 44.4346 44.4346h355.479c24.4375 0 44.4336 -19.9961 44.4336 -44.4346zM353.305 136.784l-82.1084 187.954h-30.3916l-82.1123 -187.954h33.5908l19.1973 45.0547h88.2412l18.9297 -45.0547h34.6533z"></glyph><glyph glyph-name="mapmarker4-B" unicode="&#xe022;" d="M300.921 192.371c0 -17.0625 -13.5947 -25.8604 -35.9902 -25.8604h-54.3848v51.1875h51.9854c25.8574 -0.000976562 38.3896 -9.33008 38.3896 -25.3271zM290.523 271.017c0 -17.3262 -14.1289 -25.5938 -35.1895 -25.5928h-44.7891v49.5879h47.1885 c21.0605 0 32.79 -8.79883 32.79 -23.9951zM478.174 364.065v-266.609c0 -24.4385 -19.9961 -44.4346 -44.4346 -44.4346h-44.4355v-155.521l-166.63 155.521h-144.413c-24.4385 0 -44.4346 19.9951 -44.4346 44.4346v266.609c0 24.4385 19.9961 44.4346 44.4346 44.4346 h355.479c24.4375 0 44.4336 -19.9961 44.4336 -44.4346zM333.713 188.906c0 25.5928 -15.1963 38.123 -37.0576 45.5869c13.8633 7.19922 26.6611 18.9297 26.6611 41.8564c0 29.3252 -23.7285 47.7207 -61.3193 47.7207h-83.71v-186.617h86.374 c41.5928 -0.000976562 69.0518 17.8623 69.0518 51.4531z"></glyph><glyph glyph-name="mapmarker4-C" unicode="&#xe023;" d="M433.739 408.5c24.4385 0 44.4346 -19.9961 44.4355 -44.4346v-266.609c0 -24.4395 -19.9971 -44.4346 -44.4346 -44.4346h-44.4355v-155.521l-166.631 155.521h-144.413c-24.4385 0 -44.4346 19.9961 -44.4346 44.4346v266.609 c0 24.4385 19.9961 44.4346 44.4346 44.4346h355.479zM265.599 134.254c34.9229 0 56.251 12.7969 75.7119 33.0576l-21.0625 21.3281c-15.9941 -14.9316 -30.6572 -24.2607 -53.582 -24.2607c-35.7275 0 -61.5879 29.8584 -61.5879 66.6475 c0 36.7939 25.8604 66.1182 61.5879 66.1182c21.3232 0 37.3184 -9.3291 52.25 -23.1934l21.0586 24.2607c-17.8594 17.0625 -38.6533 29.0557 -73.0439 29.0557c-56.5186 0 -96.2412 -43.4531 -96.2412 -96.7754c0 -53.8516 40.5225 -96.2383 94.9092 -96.2383z"></glyph><glyph glyph-name="mapmarker4-D" unicode="&#xe024;" d="M305.989 230.494c0 -36.7891 -25.5947 -63.1836 -64.7861 -63.1836h-36.791v126.899h36.791c39.1934 0 64.7861 -26.9248 64.7861 -63.7158zM478.174 364.065v-266.609c0 -24.4385 -19.9961 -44.4346 -44.4346 -44.4346h-44.4355v-155.521l-166.63 155.521h-144.413 c-24.4385 0 -44.4346 19.9951 -44.4346 44.4346v266.609c0 24.4385 19.9961 44.4346 44.4346 44.4346h355.479c24.4375 0 44.4336 -19.9961 44.4336 -44.4346zM340.378 231.028c0 52.7861 -40.5244 93.042 -99.1748 93.042h-69.582v-186.617h69.582 c58.6504 -0.000976562 99.1748 40.7891 99.1748 93.5752z"></glyph><glyph glyph-name="mapmarker4-E" unicode="&#xe025;" d="M433.739 408.5c24.4385 0 44.4346 -19.9961 44.4355 -44.4346v-266.609c0 -24.4395 -19.9971 -44.4346 -44.4346 -44.4346h-44.4355v-155.521l-166.631 155.521h-144.413c-24.4385 0 -44.4346 19.9961 -44.4346 44.4346v266.609 c0 24.4385 19.9961 44.4346 44.4346 44.4346h355.479zM325.846 137.452l-0.000976562 29.3252h-106.902v50.1221h93.5762v29.3242h-93.5762v48.5205h105.575v29.3252h-138.365v-186.617h139.693z"></glyph><glyph glyph-name="mapmarker4-F" unicode="&#xe026;" d="M433.739 408.5c24.4385 0 44.4346 -19.9961 44.4355 -44.4346v-266.609c0 -24.4395 -19.9971 -44.4346 -44.4346 -44.4346h-44.4355v-155.521l-166.631 155.521h-144.413c-24.4385 0 -44.4346 19.9961 -44.4346 44.4346v266.609 c0 24.4385 19.9961 44.4346 44.4346 44.4346h355.479zM325.446 294.21v29.8594h-138.896v-186.617h32.79v75.9785h94.1123v29.8594h-94.1123v50.9199h106.105z"></glyph><glyph glyph-name="mapmarker4-G" unicode="&#xe027;" d="M433.739 408.5c24.4385 0 44.4346 -19.9961 44.4355 -44.4346v-266.609c0 -24.4395 -19.9971 -44.4346 -44.4346 -44.4346h-44.4355v-155.521l-166.631 155.521h-144.413c-24.4385 0 -44.4346 19.9961 -44.4346 44.4346v266.609 c0 24.4385 19.9961 44.4346 44.4346 44.4346h355.479zM343.308 163.31l-0.000976562 78.3818h-79.4434v-28.5264h47.7236v-34.9229c-11.4648 -8.53125 -27.459 -14.1289 -45.0596 -14.1289c-38.1191 0 -63.4482 28.2578 -63.4482 66.9131 c0 36.2598 26.127 66.1182 60.5137 66.1182c23.7285 0 37.8574 -7.73242 52.2539 -19.9951l20.7949 24.7949c-19.1895 16.2588 -39.1846 25.3232 -71.7119 25.3232c-56.2529 0 -96.2393 -44.2529 -96.2393 -96.7754c0 -54.6504 38.3906 -96.2383 96.7695 -96.2383 c33.0664 0 59.457 13.3262 77.8477 29.0557z"></glyph><glyph glyph-name="mapmarker4-H" unicode="&#xe028;" d="M433.739 408.5c24.4385 0 44.4346 -19.9961 44.4355 -44.4346v-266.609c0 -24.4395 -19.9971 -44.4346 -44.4346 -44.4346h-44.4355v-155.521l-166.631 155.521h-144.413c-24.4385 0 -44.4346 19.9961 -44.4346 44.4346v266.609 c0 24.4385 19.9961 44.4346 44.4346 44.4346h355.479zM333.31 137.452v186.617h-32.7871v-77.5791h-89.0459v77.5791h-32.7871v-186.617h32.7871v78.6455h89.0459v-78.6455h32.7871z"></glyph><glyph glyph-name="mapmarker4-I" unicode="&#xe029;" d="M433.739 408.5c24.4385 0 44.4346 -19.9961 44.4355 -44.4346v-266.609c0 -24.4395 -19.9971 -44.4346 -44.4346 -44.4346h-44.4355v-155.521l-166.631 155.521h-144.413c-24.4385 0 -44.4346 19.9961 -44.4346 44.4346v266.609 c0 24.4385 19.9961 44.4346 44.4346 44.4346h355.479zM272.395 137.452v186.617h-32.791v-186.617h32.791z"></glyph><glyph glyph-name="eye-3" unicode="&#xe02a;" d="M309.229 153.002c0 -29.3965 -23.832 -53.2285 -53.2285 -53.2285s-53.2285 23.832 -53.2285 53.2285s23.832 53.2295 53.2285 53.2295s53.2285 -23.833 53.2285 -53.2295zM511.5 153.002v-0.00390625c0 -19.6162 -10.9951 -24.0947 -48.6299 -59.1309 c-69.8965 -65.0684 -129.871 -89.7744 -206.87 -89.9111c-77.001 0.136719 -136.976 24.8428 -206.87 89.9111c-37.6348 35.0361 -48.6299 39.5146 -48.6299 59.1309v0.00390625c0 19.6152 10.9951 24.0947 48.6299 59.1299c69.8945 65.0684 129.869 89.7744 206.87 89.9121 c76.999 -0.137695 136.974 -24.8438 206.87 -89.9121c37.6348 -35.0352 48.6299 -39.5146 48.6299 -59.1299zM362.458 153.002c0 58.793 -47.665 106.458 -106.458 106.458c-58.7949 0 -106.458 -47.665 -106.458 -106.458c0 -58.7939 47.6631 -106.459 106.458 -106.459 c58.793 0 106.458 47.665 106.458 106.459z"></glyph><glyph glyph-name="avatar-1" unicode="&#xe02b;" d="M317.962 142.789v-22.9873c7.00977 -3.05762 165.845 -71.3604 171.552 -78.0732c5.68555 -6.67871 10.1562 -13.4551 13.4492 -20.5244c3.94043 -8.11035 6.79102 -16.6553 8.53711 -25.6367v-76.1924h-511v76.1924c1.9873 8.98047 4.91699 17.5254 8.8584 25.6367 c3.28516 7.06934 7.79688 13.8467 13.4834 20.5244c5.70605 6.71289 13.0254 11.6816 22.0078 14.9912c4.60742 1.5166 148.003 62.3135 154.792 65.3691v22.0322c-0.426758 1.72559 -4.14746 15.3252 -5.26172 19.0674c-1.28809 4.34668 -2.84766 9.06445 -4.59375 14.1172 c-6.34277 11.8311 -11.3955 25.2217 -15.1162 40.2354c-3.72266 15.0098 -5.60352 30.958 -5.60352 47.8223c0 22.1436 2.37109 40.8779 7.06934 56.2021c4.72949 15.3457 11.1338 27.8213 19.2529 37.4473c8.08691 9.64648 17.5605 16.6758 28.4248 21.042 c10.8301 4.4082 22.4863 6.57031 34.9834 6.57031c12.2764 0 23.8164 -2.09863 34.6611 -6.40527c10.8555 -4.28223 20.376 -11.165 28.5879 -20.6865c8.22852 -9.54395 14.6729 -22.0215 19.4014 -37.4893c4.72852 -15.4092 7.06836 -34.3506 7.06836 -56.6816 c0 -16.4473 -1.80859 -32.0195 -5.42676 -46.8252c-3.61621 -14.8037 -8.61035 -28.0918 -14.9492 -39.9629c-1.75098 -5.42773 -3.40918 -10.584 -4.91992 -15.3887c-1.31836 -4.19727 -5.25781 -18.6689 -5.25781 -20.3965z"></glyph><glyph glyph-name="avatar-2" unicode="&#xe02c;" d="M511.5 47.1768v-128.385h-511v164.169c41.248 17.4287 88.0918 37.335 91.9082 39.0508v22.0869c-0.429688 1.73047 -1.14844 4.44141 -2.12793 8.06738c-1.01172 3.62598 -2.03125 7.2959 -3.14746 11.0469c-1.29102 4.35742 -2.85352 9.08887 -4.60449 14.1543 c-6.35938 11.8584 -11.4248 25.2832 -15.1543 40.335c-3.73242 15.0479 -5.61816 31.0352 -5.61816 47.9404c0 22.1992 2.37695 40.9805 7.08887 56.3428c4.74023 15.3848 11.1611 27.8916 19.3027 37.542c8.10547 9.66992 17.6025 16.7168 28.4932 21.0938 c10.8574 4.41895 22.543 6.58691 35.0713 6.58691c12.3066 0 23.876 -2.10449 34.7461 -6.4209c10.8828 -4.29297 20.4268 -11.1924 28.6611 -20.7383c8.24609 -9.56738 14.7061 -22.0752 19.4473 -37.582c4.74121 -15.4473 7.08789 -34.4375 7.08789 -56.8232 c0 -16.4873 -1.81348 -32.0986 -5.43945 -46.9404c-3.62793 -14.8408 -8.63086 -28.1611 -14.9893 -40.0635c-1.75098 -5.44141 -3.41797 -10.6104 -4.92773 -15.4268c-1.3252 -4.21094 -2.54297 -8.21289 -3.62598 -12.0059 c-1.11719 -3.89648 -1.64648 -6.71191 -1.64648 -8.44336v-23.0449c6.00293 -2.62012 74.6934 -32.3789 100.031 -43.2686c11.0488 4.69824 18.8105 8.0166 20.1406 8.61523v18.0664c-0.351562 1.41602 -0.936523 3.63477 -1.73926 6.60254 c-0.823242 2.96777 -1.66309 5.96973 -2.57422 9.03711c-1.05957 3.56738 -2.33691 7.43652 -3.77051 11.5801c-5.19922 9.70312 -9.3457 20.6865 -12.3965 33.002c-3.05371 12.3125 -4.59668 25.3926 -4.59668 39.2266c0 18.1621 1.94727 33.5303 5.79785 46.0977 c3.87988 12.5879 9.13086 22.8193 15.7939 30.7168c6.63281 7.91113 14.4053 13.6777 23.3135 17.2588c8.88281 3.61426 18.4463 5.38965 28.6934 5.38965c10.0713 0 19.5361 -1.72266 28.4287 -5.25488c8.90723 -3.51172 16.7168 -9.15723 23.4531 -16.9668 c6.74512 -7.82812 12.0303 -18.0635 15.9102 -30.75c3.87988 -12.6387 5.79688 -28.1748 5.79688 -46.4902c0 -13.4912 -1.47852 -26.2637 -4.44824 -38.4062c-2.9707 -12.1436 -7.0625 -23.042 -12.2646 -32.7793c-1.43457 -4.45117 -2.79785 -8.68164 -4.0293 -12.6221 c-1.08398 -3.44336 -2.08301 -6.71973 -2.96973 -9.82031c-0.914062 -3.18945 -1.34668 -5.49121 -1.34668 -6.91016v-18.8545c5.02051 -2.19434 63.7686 -27.6436 83.251 -36.0117z"></glyph><glyph glyph-name="user-delete" unicode="&#xe02d;" d="M351.809 -70.5625l-53.2256 53.2285l53.2256 53.2246l-53.2256 53.2256l53.2256 53.2285l53.2295 -53.2285l53.2285 53.2285l53.2334 -53.2285l-53.2334 -53.2256l53.2334 -53.2246l-53.2334 -53.2285l-53.2285 53.2285zM274.493 6.75684 c-5.50195 -5.50195 -8.6875 -12.417 -9.63965 -19.5742h-264.354v63.4971c1.65527 7.48047 4.0957 14.6045 7.38281 21.3604c2.74023 5.88867 6.49512 11.5361 11.2363 17.1035c4.75684 5.59473 10.8535 9.73535 18.3428 12.4922 c3.83789 1.26562 123.329 51.9287 128.989 54.4775v18.3594c-0.353516 1.43945 -0.952148 3.69141 -1.7627 6.7041c-0.845703 3.01562 -1.69336 6.06738 -2.62012 9.18457c-1.07324 3.62207 -2.37402 7.55371 -3.82617 11.7666 c-5.28906 9.8584 -9.49805 21.0166 -12.6006 33.5283c-3.10254 12.5088 -4.66992 25.7988 -4.66992 39.8525c0 18.4512 1.97949 34.0645 5.88867 46.833c3.94629 12.79 9.27734 23.1865 16.0518 31.208c6.7373 8.03906 14.6299 13.8965 23.6826 17.5352 c9.0293 3.67188 18.7393 5.47656 29.1562 5.47656c10.2305 0 19.8486 -1.75098 28.8809 -5.33887c9.04883 -3.56738 16.9785 -9.30176 23.8242 -17.2383c6.8584 -7.95312 12.2256 -18.3506 16.1719 -31.2393c3.93945 -12.8418 5.88867 -28.6279 5.88867 -47.2354 c0 -13.7061 -1.50977 -26.6826 -4.52051 -39.0205c-3.01953 -12.3369 -7.18164 -23.4111 -12.4629 -33.3047c-1.45996 -4.52246 -2.83594 -8.82031 -4.0957 -12.8223c-1.10352 -3.5 -2.11426 -6.82715 -3.02051 -9.97949 c-0.922852 -3.24121 -1.36816 -5.58008 -1.36816 -7.02246v-19.1533c2.47852 -1.0791 17.8154 -7.72461 35.1934 -15.249l-25.749 -25.7539c-13.3037 -13.3037 -13.3037 -34.874 0 -48.1768l29.1387 -29.1357z"></glyph><glyph glyph-name="user-favourite" unicode="&#xe02e;" d="M339.245 -70.5625l12.5664 74.0469l-53.2285 52.4463l73.5635 10.8047l32.8955 67.3672l32.8936 -67.3672l73.5645 -10.8047l-53.2295 -52.4463l12.5674 -74.0469l-65.7959 34.9648zM315.255 -8.32227l-0.760742 -4.49512h-313.994v63.4971 c1.65527 7.48047 4.0957 14.6045 7.38281 21.3604c2.74023 5.88867 6.49512 11.5361 11.2363 17.1035c4.75684 5.59473 10.8535 9.73535 18.3428 12.4922c3.83789 1.26562 123.329 51.9287 128.989 54.4775v18.3594c-0.353516 1.43945 -0.952148 3.69141 -1.7627 6.7041 c-0.845703 3.01562 -1.69336 6.06738 -2.62012 9.18457c-1.07324 3.62207 -2.37402 7.55371 -3.82617 11.7666c-5.28906 9.8584 -9.49805 21.0166 -12.6006 33.5283c-3.10254 12.5088 -4.66992 25.7988 -4.66992 39.8525c0 18.4512 1.97949 34.0645 5.88867 46.833 c3.94629 12.79 9.27734 23.1865 16.0518 31.208c6.7373 8.03906 14.6299 13.8965 23.6826 17.5352c9.0293 3.67188 18.7393 5.47656 29.1562 5.47656c10.2305 0 19.8486 -1.75098 28.8809 -5.33887c9.04883 -3.56738 16.9785 -9.30176 23.8242 -17.2383 c6.8584 -7.95312 12.2256 -18.3506 16.1719 -31.2393c3.93945 -12.8418 5.88867 -28.6279 5.88867 -47.2354c0 -13.7061 -1.50977 -26.6826 -4.52051 -39.0205c-3.01953 -12.3369 -7.18164 -23.4111 -12.4629 -33.3047 c-1.45996 -4.52246 -2.83594 -8.82031 -4.0957 -12.8223c-1.10352 -3.5 -2.11426 -6.82715 -3.02051 -9.97949c-0.922852 -3.24121 -1.36816 -5.58008 -1.36816 -7.02246v-19.1533c5.84766 -2.54492 83.0791 -36.0049 90.3691 -39.0527 c0.511719 -0.211914 1.22656 -0.507812 2.0459 -0.853516l-8.04297 -16.4717l-55.7861 -8.19238c-12.7871 -1.87988 -23.4121 -10.8291 -27.4297 -23.1172c-4.01758 -12.2842 -0.740234 -25.7832 8.4668 -34.8525z"></glyph><glyph glyph-name="user-add" unicode="&#xe02f;" d="M511.5 0.407227h-70.9697v-70.9697h-70.9785v70.9697h-70.9697v70.9775h70.9697v70.9707h70.9785v-70.9707h70.9697v-70.9775zM264.517 0.407227c0 -4.69141 0.948242 -9.15723 2.66602 -13.2246h-266.683v63.4971c1.65527 7.48047 4.0957 14.6045 7.38184 21.3604 c2.74023 5.88867 6.49512 11.5361 11.2363 17.1035c4.75684 5.59473 10.8535 9.73535 18.3428 12.4922c3.83789 1.26562 123.329 51.9287 128.989 54.4775v18.3594c-0.353516 1.43945 -0.952148 3.69141 -1.7627 6.7041 c-0.845703 3.01562 -1.69336 6.06738 -2.62012 9.18457c-1.07324 3.62207 -2.37402 7.55371 -3.82617 11.7666c-5.28906 9.8584 -9.49805 21.0166 -12.6006 33.5283c-3.10254 12.5088 -4.66992 25.7988 -4.66992 39.8525c0 18.4512 1.97949 34.0645 5.88867 46.833 c3.94629 12.79 9.27734 23.1865 16.0518 31.208c6.7373 8.03906 14.6299 13.8965 23.6826 17.5352c9.0293 3.67188 18.7393 5.47656 29.1562 5.47656c10.2305 0 19.8486 -1.75098 28.8809 -5.33887c9.04883 -3.56738 16.9785 -9.30176 23.8242 -17.2383 c6.8584 -7.95312 12.2256 -18.3506 16.1719 -31.2393c3.93945 -12.8418 5.88867 -28.6279 5.88867 -47.2354c0 -13.7061 -1.50977 -26.6826 -4.52051 -39.0205c-3.01953 -12.3369 -7.18164 -23.4111 -12.4629 -33.3047 c-1.45996 -4.52246 -2.83594 -8.82031 -4.09668 -12.8223c-1.10254 -3.5 -2.11328 -6.82715 -3.01953 -9.97949c-0.922852 -3.24121 -1.36816 -5.58008 -1.36816 -7.02246v-19.1543c4.18457 -1.82129 44.9336 -19.4756 70.4385 -30.4863v-18.2686h-36.9033 c-18.8115 0 -34.0664 -15.2529 -34.0664 -34.0664v-70.9775z"></glyph><glyph glyph-name="box-chevron-left" unicode="&#xe030;" d="M0.5 408.5h511v-511h-511v511zM350.395 43.7051l-109.299 109.295l109.298 109.295l-39.7422 39.7471l-109.3 -109.295l-39.7461 -39.7471l39.7471 -39.7471l109.3 -109.295z"></glyph><glyph glyph-name="box-chevron-right" unicode="&#xe031;" d="M511.5 -102.5h-511v511h511v-511zM161.605 262.295l109.299 -109.295l-109.298 -109.295l39.7422 -39.7471l109.3 109.295l39.7461 39.7471l-39.7471 39.7471l-109.3 109.295z"></glyph><glyph glyph-name="box-chevron-down" unicode="&#xe032;" d="M0.5 -102.5v510.999l511 0.000976562v-511h-511zM365.295 247.395l-109.295 -109.3l-109.295 109.298l-39.7471 -39.7412l109.295 -109.301l39.7471 -39.7471l39.7471 39.748l109.295 109.3z"></glyph><glyph glyph-name="box-chevron-up" unicode="&#xe033;" d="M511.5 408.5v-510.999l-511 -0.000976562v511h511zM146.705 58.6055l109.295 109.3l109.295 -109.298l39.7471 39.7412l-109.295 109.301l-39.7471 39.7471l-39.7471 -39.748l-109.295 -109.3z"></glyph><glyph glyph-name="Layer_8" unicode="&#xe034;" d="M511.5 376.561v-106.453h-511v106.453h511zM0.5 99.7725v106.454h511v-106.454h-511zM0.5 -70.5605v106.454h511v-106.454h-511z"></glyph><glyph glyph-name="grid-medium" unicode="&#xe035;" d="M238.38 161.81h-193.828v105.726h193.828v-105.726zM467.448 267.535v-105.726h-193.828v105.726h193.828zM238.38 408.5v-105.724h-193.828v105.724h193.828zM467.448 408.5v-105.724h-193.828v105.724h193.828zM238.38 126.569v-88.1045h-193.828v88.1045h193.828z M467.448 126.569v-88.1045h-193.828v88.1045h193.828zM238.38 3.22363v-105.724h-193.828v105.724h193.828zM467.448 3.22363v-105.724h-193.828v105.724h193.828z"></glyph><glyph glyph-name="cldownload" unicode="&#xe036;" d="M295.032 47.7812h71.4346l-110.467 -136.62l-110.476 136.62h71.4355v117.104h78.0723v-117.104zM423.064 248.209c49.4033 -3.38086 88.4355 -44.5039 88.4365 -94.7637c0 -52.4727 -42.542 -95.0146 -95.0137 -95.0146l-3.07812 -0.00390625l15.4951 19.1621h-62.4375 h-41.627v87.2959v29.8096h-29.8076h-78.0723h-29.8086v-29.8096v-87.2959h-41.627h-62.4385l15.8135 -19.5527l-2.58594 -0.00488281c-52.9189 0 -95.8135 42.8955 -95.8135 95.8125c0 42.7246 27.9658 78.9004 66.5859 91.2549 c-1.77051 8.47656 -2.71094 17.25 -2.71094 26.249c0 70.5537 57.1963 123.491 127.75 123.491c44.0508 0 82.8916 -20.6387 105.859 -53.3115c12.6709 6.84375 27.4004 10.7285 43.1826 10.7285c47.0371 0 85.166 -33.8711 85.166 -80.9082 c0 -8.03027 -1.19043 -15.7695 -3.26855 -23.1387z"></glyph><glyph glyph-name="checkbox-empty" unicode="&#xe037;" d="M460.399 357.074h-408.8v-408.799h408.8v408.799zM511.499 408.174v0v-511h-510.999v511h510.999z"></glyph><glyph glyph-name="checkbox-full" unicode="&#xe038;" d="M511.5 337.291l-66.6533 -68.9043v-348.995h-444.347v444.349h440.664l21.4619 22.2178zM400.412 -36.1738v258.625l-189.007 -195.401l-149.612 158.155l48.874 50.1846l100.738 -109.489l186.834 193.403h-353.305v-355.478h355.478z"></glyph><glyph glyph-name="speech-alt-3" unicode="&#xe039;" d="M460.4 395.725c28.1045 0 51.0996 -22.9941 51.0996 -51.0996v-281.05c0 -28.1064 -22.9961 -51.1016 -51.0996 -51.1016h-102.2c-37.4971 -45.2197 -94.415 -102.289 -149.887 -102.198c28.7939 21.6064 36.6875 65.5107 47.6865 102.198h-204.4 c-28.1045 0 -51.0996 22.9961 -51.0996 51.1016v281.05c0 28.1055 22.9951 51.0996 51.0996 51.0996h408.801zM460.4 89.125l0.000976562 229.95c0 14.0518 -11.498 25.5498 -25.5518 25.5498h-357.699c-14.0527 0 -25.5508 -11.498 -25.5508 -25.5498v-229.95 c0 -14.0527 11.498 -25.5498 25.5508 -25.5498h357.698c14.0537 0 25.5518 11.4971 25.5518 25.5498z"></glyph><glyph glyph-name="speech-alt-1" unicode="&#xe03a;" d="M511.5 344.625v-281.05c0 -28.1055 -22.9951 -51.1016 -51.0996 -51.1016h-102.2c-37.4971 -45.2207 -94.415 -102.289 -149.887 -102.198c28.793 21.6064 36.6875 65.5117 47.6865 102.198h-204.4c-28.1045 0 -51.0996 22.9951 -51.0996 51.1016v281.05 c0 28.1055 22.9951 51.0996 51.0996 51.0996h408.801c28.1045 0 51.0996 -22.9941 51.0996 -51.0996z"></glyph><glyph glyph-name="chevron-right" unicode="&#xe03b;" d="M94.1826 340.365l68.1348 68.1348l187.364 -187.365l68.1357 -68.1348l-68.1357 -68.1348l-187.364 -187.365l-68.1357 68.1348l187.365 187.365z"></glyph><glyph glyph-name="chevron-down" unicode="&#xe03c;" d="M443.365 314.817l68.1348 -68.1357l-187.365 -187.364l-68.1348 -68.1348l-68.1348 68.1357l-187.365 187.364l68.1348 68.1357l187.365 -187.365z"></glyph><glyph glyph-name="chevron-up" unicode="&#xe03d;" d="M68.6348 -8.81738l-68.1348 68.1348l187.365 187.364l68.1348 68.1357l68.1348 -68.1357l187.365 -187.364l-68.1348 -68.1357l-187.365 187.365z"></glyph><glyph glyph-name="chevron-left" unicode="&#xe03e;" d="M230.453 153l187.365 -187.365l-68.1357 -68.1348l-187.365 187.365l-68.1348 68.1348l68.1357 68.1348l187.364 187.365l68.1357 -68.1348z"></glyph><glyph glyph-name="ordered-list" unicode="&#xe03f;" d="M511.5 180.735h-376.526v53.7891h376.526v-53.7891zM511.5 368.158v-53.79h-376.526v53.79h376.526zM511.5 100.051v-53.7891h-376.526v53.7891h376.526zM511.5 -34.4219v-53.79h-376.526v53.79h376.526zM88.2334 395.053l0.000976562 -80.6846h-13.3896v80.6846h13.3887 zM56.9365 260.579v-80.6855h-13.3848v80.6855h13.3848zM88.2334 260.579v-80.6855h-13.3848v80.6855h13.3848zM26.9639 126.106v-80.6855h-13.3838v80.6855h13.3838zM58.2607 126.106h-0.000976562v-80.6855h-13.3838v80.6855h13.3848zM88.2334 126.106v-80.6855h-13.3848 v80.6855h13.3848zM13.8838 -8.36914v-80.6826h-13.3838v80.6826h13.3838zM75.2695 -8.36914h12.9639l-27.5244 -80.6826h-13.458l-27.5781 80.6826h13.0176l14.5605 -45.5781l6.78711 -22.0723l6.6709 22.0723z"></glyph><glyph glyph-name="cld2-sync" unicode="&#xe040;" d="M423.064 174.773c49.4033 -3.38086 88.4355 -44.5039 88.4365 -94.7646c0 -52.4727 -42.542 -95.0146 -95.0137 -95.0146l-320.174 -0.398438c-52.9189 0 -95.8135 42.8955 -95.8135 95.8135c0 42.7246 27.9658 78.8994 66.5859 91.2549 c-1.77051 8.47559 -2.71094 17.25 -2.71094 26.249c0 70.5527 57.1963 123.491 127.75 123.491c44.0508 0 82.8906 -20.6396 105.859 -53.3135c12.6709 6.84473 27.4004 10.7295 43.1826 10.7295c47.0371 0 85.166 -33.8711 85.166 -80.9082 c0 -8.03125 -1.19043 -15.7705 -3.26855 -23.1387zM416.448 14.8037c35.9922 0 65.2432 29.251 65.2422 65.2051c0 34.1318 -26.6475 62.6982 -60.6602 65.0264c-8.95703 0.611328 -17.1621 5.22852 -22.3359 12.5713c-5.16895 7.33984 -6.75684 16.6182 -4.32031 25.2607 c1.42578 5.05273 2.15039 10.1133 2.15039 15.0439c0 29.1328 -23.7998 51.0996 -55.3584 51.0996c-10.3271 0 -20.3613 -2.4707 -29.0146 -7.14551c-4.48633 -2.42383 -9.34375 -3.58398 -14.1475 -3.58398c-9.42969 0 -18.6455 4.47656 -24.4062 12.6689 c-17.8916 25.4512 -48.3486 40.6445 -81.4736 40.6445c-54.9199 0 -97.9424 -41.1504 -97.9424 -93.6826c0 -6.76562 0.702148 -13.5449 2.08203 -20.1504c3.12305 -14.9443 -5.55176 -29.8369 -20.0957 -34.4873c-27.4287 -8.77441 -45.8604 -34.0381 -45.8604 -62.8643 c0 -36.3965 29.6084 -66.0049 66.0039 -66.0049zM248.44 61.791l-2.62012 -23.5664c-36.2295 4.27148 -64.3418 35.0645 -64.3418 72.4414c0 16.1807 5.28613 31.1055 14.2061 43.1982l-8.49121 8.49219c-4.96973 4.96094 -3.31836 9.66309 3.65918 10.4375l32.665 3.62695 c6.97852 0.777344 12.0566 -4.2998 11.2783 -11.2783l-3.62598 -32.665c-0.77832 -6.97754 -5.47266 -8.62891 -10.4375 -3.6582l-7.97656 7.97168c-4.77344 -7.57715 -7.55957 -16.5215 -7.55957 -26.124c-0.000976562 -25.1221 18.9121 -45.8984 43.2441 -48.876z M330.521 113.984c0 -16.1816 -5.28516 -31.1055 -14.2012 -43.1943l8.49219 -8.49121c4.96484 -4.96582 3.31738 -9.66504 -3.66016 -10.4375l-32.665 -3.63574c-6.97852 -0.772461 -12.0566 4.30566 -11.2822 11.2822l3.63086 32.665 c0.773438 6.98242 5.47656 8.625 10.4385 3.66406l7.97168 -7.97168c4.77832 7.57227 7.56348 16.5176 7.56348 26.1191c0 25.3203 -19.2119 46.2295 -43.8125 48.9492l2.61914 23.5664c36.502 -4.01172 64.9053 -34.9395 64.9053 -72.5156z"></glyph><glyph glyph-name="cld-sync" unicode="&#xe041;" d="M423.064 174.773c49.4033 -3.38086 88.4355 -44.5039 88.4365 -94.7646c0 -52.4727 -42.542 -95.0146 -95.0137 -95.0146l-320.174 -0.398438c-52.9189 0 -95.8135 42.8955 -95.8135 95.8135c0 42.7246 27.9658 78.8994 66.5859 91.2549 c-1.77051 8.47559 -2.71094 17.25 -2.71094 26.249c0 70.5527 57.1963 123.491 127.75 123.491c44.0508 0 82.8906 -20.6396 105.859 -53.3135c12.6709 6.84473 27.4004 10.7295 43.1826 10.7295c47.0371 0 85.166 -33.8711 85.166 -80.9082 c0 -8.03125 -1.19043 -15.7705 -3.26855 -23.1387zM244.364 27.5791l2.99414 26.9326c-27.8086 3.40234 -49.4199 27.1475 -49.4199 55.8545c0 10.9727 3.18164 21.2002 8.6416 29.8564l9.11133 -9.11035c5.67676 -5.67578 11.041 -3.79199 11.9307 4.18359l4.14551 37.3311 c0.886719 7.97656 -4.91504 13.7783 -12.8906 12.8916l-37.3311 -4.14551c-7.97559 -0.885742 -9.86035 -6.25781 -4.18359 -11.9307l9.70605 -9.70605c-10.1934 -13.8184 -16.2354 -30.877 -16.2354 -49.3691c0 -42.7168 32.1289 -77.9062 73.5312 -82.7881z M334.642 55.0918l-9.7041 9.70801c10.1924 13.8145 16.2305 30.873 16.2305 49.3652c0 42.9414 -32.4619 78.2891 -74.1797 82.875l-2.99414 -26.9346c28.1191 -3.10645 50.0723 -27.0049 50.0723 -55.9404c0 -10.9736 -3.18262 -21.2012 -8.64258 -29.8545 l-9.11035 9.11133c-5.67285 5.6709 -11.0459 3.79102 -11.9316 -4.1875l-4.14551 -37.3311c-0.885742 -7.97754 4.91504 -13.7783 12.8906 -12.8926l37.3311 4.15039c7.97656 0.885742 9.86133 6.25391 4.18359 11.9307z"></glyph><glyph glyph-name="cld-settings" unicode="&#xe042;" d="M298.588 116.604c0 -23.4785 -19.1035 -42.5781 -42.5879 -42.5781s-42.5752 19.1006 -42.5752 42.5781c0 23.4795 19.0918 42.5791 42.5752 42.5791s42.5879 -19.0986 42.5879 -42.5791zM511.5 80.0098c0 -52.4727 -42.542 -95.0146 -95.0137 -95.0146 l-320.175 -0.398438c-52.917 0 -95.8125 42.8955 -95.8125 95.8135c0 42.7246 27.9658 78.8984 66.5859 91.2539c-1.77051 8.47559 -2.71094 17.25 -2.71094 26.249c0 70.5537 57.1963 123.491 127.75 123.491c44.0508 0 82.8916 -20.6396 105.859 -53.3135 c12.6709 6.8457 27.3994 10.7295 43.1826 10.7295c47.0371 0 85.166 -33.8711 85.166 -80.9082c0 -8.03027 -1.18945 -15.7705 -3.26953 -23.1387c49.4053 -3.38086 88.4375 -44.5039 88.4375 -94.7637zM341.162 125.121c0 4.70312 -5.08105 8.5166 -11.3496 8.5166h-7.8252 c-1.62598 6.30566 -4.14258 12.2559 -7.38086 17.7207l5.50586 5.51367c4.44043 4.42871 5.33887 10.7285 2.0166 14.0518l-12.0469 12.0479c-3.32324 3.32227 -9.61914 2.4248 -14.0605 -2.00879l-5.56836 -5.58887c-5.38086 3.16406 -11.2285 5.61816 -17.416 7.21484 v7.82617c0 6.27051 -3.81348 11.3574 -8.51172 11.3574h-17.0381c-4.70312 0 -8.5127 -5.08691 -8.5127 -11.3574v-7.82617c-6.2002 -1.59668 -12.0391 -4.04688 -17.416 -7.20312l-5.58008 5.57715c-4.44141 4.43359 -10.7295 5.33105 -14.0527 2.00879l-12.0469 -12.0479 c-3.32324 -3.32227 -2.42383 -9.62305 2.00879 -14.0518l5.50684 -5.51367c-3.24023 -5.45996 -5.75586 -11.415 -7.38184 -17.7207h-7.82617c-6.26758 0 -11.3496 -3.8125 -11.3496 -8.5166v-17.0332c0 -4.70312 5.08203 -8.5127 11.3496 -8.5127h7.82617 c1.59766 -6.2002 4.05078 -12.0391 7.21582 -17.416l-5.58105 -5.58008c-4.44141 -4.43848 -5.34082 -10.7295 -2.01758 -14.0518l12.0469 -12.0479c3.32324 -3.32227 9.62305 -2.4248 14.0645 2.00488l5.50586 5.52148c5.47266 -3.25586 11.4189 -5.75977 17.7275 -7.38574 v-7.82617c0 -6.27051 3.80957 -11.3564 8.5127 -11.3564h17.0381c4.69824 0 8.51172 5.08594 8.51172 11.3564v7.82617c6.30859 1.62598 12.2559 4.1416 17.7158 7.38574l5.51953 -5.52148c4.42871 -4.42969 10.7285 -5.32715 14.0518 -2.00488l12.0469 12.0479 c3.32227 3.32129 2.4248 9.61328 -2.0166 14.0518l-5.58105 5.58008c3.16504 5.37695 5.61719 11.2158 7.21484 17.416h7.82617c6.26758 0 11.3486 3.80957 11.3486 8.5127z"></glyph><glyph glyph-name="cld-share" unicode="&#xe043;" d="M423.064 174.773c49.4033 -3.38086 88.4355 -44.5039 88.4365 -94.7646c0 -52.4727 -42.542 -95.0146 -95.0137 -95.0146l-320.174 -0.398438c-52.9189 0 -95.8135 42.8955 -95.8135 95.8135c0 42.7246 27.9658 78.8994 66.5859 91.2549 c-1.77051 8.47559 -2.71094 17.25 -2.71094 26.249c0 70.5527 57.1963 123.491 127.75 123.491c44.0508 0 82.8906 -20.6396 105.859 -53.3135c12.6709 6.84473 27.4004 10.7295 43.1826 10.7295c47.0371 0 85.166 -33.8711 85.166 -80.9082 c0 -8.03125 -1.19043 -15.7705 -3.26855 -23.1387zM232.525 117.087c0 0.873047 -0.0507812 1.73438 -0.116211 2.58594l57.6631 29.4043c5.20215 -4.40332 11.9258 -7.07324 19.2812 -7.07324c16.4971 0 29.8848 13.3779 29.8848 29.8867 c0 16.4971 -13.3877 29.8809 -29.8848 29.8809c-16.5049 0 -29.8906 -13.3838 -29.8906 -29.8809c0 -0.914062 0.0625 -1.80762 0.140625 -2.70215l-57.5869 -29.3672c-5.21875 4.4502 -11.9756 7.14746 -19.3613 7.14746c-16.5186 0 -29.8926 -13.3779 -29.8926 -29.8828 s13.374 -29.8828 29.8926 -29.8828c6.64844 0 12.7744 2.2041 17.7354 5.88379l59.1553 -30.1611c-0.0332031 -0.537109 -0.0830078 -1.06445 -0.0830078 -1.6084c0 -16.5068 13.3857 -29.8799 29.8906 -29.8799c16.4971 0 29.8848 13.373 29.8848 29.8799 c0 16.5049 -13.3877 29.8867 -29.8848 29.8867c-7.74219 0 -14.7695 -2.96875 -20.0801 -7.79297l-57.126 29.126c0.228516 1.48926 0.37793 2.99902 0.37793 4.5498z"></glyph><glyph glyph-name="user-remove" unicode="&#xe044;" d="M511.5 -21.3672h-212.917v70.9746h212.917v-70.9746zM264.517 -21.3672c0 -7.62695 2.53711 -14.6465 6.77637 -20.3242h-270.791v63.4961c1.65527 7.48145 4.0957 14.6045 7.38086 21.3623c2.74023 5.8877 6.49512 11.5361 11.2363 17.1045 c4.75684 5.59277 10.8535 9.73438 18.3428 12.4912c3.83789 1.26465 123.329 51.9287 128.989 54.4775v18.3584c-0.353516 1.43945 -0.952148 3.69141 -1.7627 6.7041c-0.845703 3.01562 -1.69336 6.06836 -2.62012 9.18457 c-1.07324 3.62207 -2.37402 7.55371 -3.82617 11.7666c-5.28906 9.8584 -9.49805 21.0176 -12.6006 33.5283c-3.10254 12.5088 -4.66992 25.7998 -4.66992 39.8535c0 18.4512 1.97949 34.0645 5.88867 46.833c3.94629 12.79 9.27734 23.1865 16.0518 31.208 c6.7373 8.03809 14.6299 13.8955 23.6826 17.5342c9.0293 3.67188 18.7393 5.47754 29.1562 5.47754c10.2305 0 19.8486 -1.75098 28.8809 -5.34082c9.04883 -3.56641 16.9785 -9.30078 23.8242 -17.2373c6.8584 -7.95312 12.2256 -18.3496 16.1719 -31.2393 c3.93945 -12.8408 5.88867 -28.627 5.88867 -47.2344c0 -13.707 -1.50977 -26.6826 -4.52051 -39.0205c-3.01953 -12.3369 -7.18164 -23.4111 -12.4629 -33.3037c-1.45996 -4.52246 -2.83594 -8.82031 -4.0957 -12.8232c-1.10352 -3.5 -2.11426 -6.82715 -3.02051 -9.97949 c-0.922852 -3.24121 -1.36816 -5.58008 -1.36816 -7.02246v-19.1543c5.84766 -2.54492 83.0791 -36.0039 90.3691 -39.0527c1.21875 -0.499023 3.42285 -1.4248 6.17578 -2.60742h-63.0107c-18.8115 0 -34.0664 -15.2529 -34.0664 -34.0654v-70.9746z"></glyph><glyph glyph-name="user-apply" unicode="&#xe045;" d="M470.247 136.052l41.2529 -41.0713l-160.12 -165.543l-88.4395 93.4922l41.1104 42.209l47.6611 -51.7988zM238.193 -0.483398l11.6689 -12.334h-249.362v63.4971c1.65527 7.48047 4.0957 14.6045 7.38086 21.3623c2.74023 5.88867 6.49512 11.5361 11.2363 17.1045 c4.75684 5.59375 10.8535 9.73438 18.3428 12.4912c3.83789 1.26562 123.329 51.9287 128.989 54.4775v18.3594c-0.353516 1.4375 -0.952148 3.69141 -1.76367 6.7041c-0.844727 3.01562 -1.69238 6.06738 -2.61914 9.18457 c-1.07324 3.62207 -2.37402 7.55371 -3.82617 11.7666c-5.28906 9.8584 -9.49805 21.0176 -12.6006 33.5283c-3.10254 12.5088 -4.66992 25.7988 -4.66992 39.8525c0 18.4512 1.97949 34.0645 5.88867 46.833c3.94629 12.79 9.27734 23.1865 16.0518 31.208 c6.7373 8.03906 14.6299 13.8965 23.6826 17.5352c9.0293 3.67188 18.7393 5.47754 29.1562 5.47754c10.2295 0 19.8486 -1.75195 28.8809 -5.33984c9.04883 -3.56738 16.9785 -9.30176 23.8242 -17.2383c6.8584 -7.95312 12.2256 -18.3506 16.1719 -31.2393 c3.93945 -12.8418 5.88867 -28.6279 5.88867 -47.2354c0 -13.7061 -1.50977 -26.6826 -4.52051 -39.0205c-3.01953 -12.3369 -7.18164 -23.4111 -12.4629 -33.3047c-1.45996 -4.52246 -2.83594 -8.82031 -4.09668 -12.8223 c-1.10254 -3.5 -2.11328 -6.82715 -3.01953 -9.97949c-0.922852 -3.24121 -1.36816 -5.58008 -1.36816 -7.02051v-19.1543c5.84668 -2.5498 83.0791 -36.0068 90.3691 -39.0547c4.25879 -1.74219 19.832 -8.40527 33.0186 -14.7637l-36.1201 -37.3936l-23.1963 25.209 c-6.33301 6.88672 -15.2246 10.8623 -24.585 10.9951c-0.162109 0.00390625 -0.320312 0.00390625 -0.482422 0.00390625c-9.18555 0 -17.9844 -3.70898 -24.4014 -10.2959l-41.1113 -42.21c-12.75 -13.0908 -12.9043 -33.9092 -0.344727 -47.1836z"></glyph><glyph glyph-name="search" unicode="&#xe046;" d="M511.5 -59.3467l-28.9805 -31.6396l-138.068 126.457c-38.8672 -34.54 -87.9756 -52.0557 -137.225 -52.0557c-49.8936 0 -99.916 17.9434 -139.605 54.2969c-84.2227 77.1387 -89.958 207.944 -12.8232 292.159c40.7803 44.5234 96.5762 67.1113 152.543 67.1152 c49.8945 0.00488281 99.9209 -17.9434 139.615 -54.2969c78.8711 -72.2402 88.8926 -191.554 26.4893 -275.583zM207.227 28.415c45.2891 0 88.7949 19.1406 119.357 52.5117c60.2539 65.7891 55.7588 168.328 -10.0205 228.58 c-29.9121 27.3945 -68.6924 42.4814 -109.21 42.4814h-0.00390625c-45.3018 -0.00488281 -88.8066 -19.1436 -119.369 -52.5098c-29.1875 -31.8682 -44.2207 -73.1924 -42.3223 -116.368c1.89355 -43.1709 20.4854 -83.0244 52.3545 -112.212 c29.9082 -27.3936 68.6934 -42.4834 109.214 -42.4834z"></glyph><glyph glyph-name="arrow-left" unicode="&#xe047;" d="M511.5 104.823h-347.969l123.025 -139.187l-60.2236 -68.1367l-165.609 187.362l-60.2236 68.1377l60.2236 68.1377l165.609 187.362l60.2236 -68.1377l-123.025 -139.186h347.969v-96.3535z"></glyph><glyph glyph-name="arrow-right" unicode="&#xe048;" d="M0.5 201.227h347.969l-123.025 139.186l60.2236 68.1377l165.609 -187.361l60.2236 -68.1387l-60.2236 -68.1377l-165.609 -187.362l-60.2236 68.1377l123.024 139.187h-347.968v96.3525z"></glyph><glyph glyph-name="arrow-up" unicode="&#xe049;" d="M207.823 -102.5v347.969l-139.186 -123.025l-68.1377 60.2236l187.362 165.609l68.1377 60.2236l68.1377 -60.2236l187.362 -165.609l-68.1377 -60.2236l-139.186 123.025v-347.969h-96.3535z"></glyph><glyph glyph-name="arrow-down" unicode="&#xe04a;" d="M304.177 408.5v-347.969l139.187 123.025l68.1377 -60.2236l-187.363 -165.609l-68.1377 -60.2236l-68.1377 60.2236l-187.362 165.609l68.1377 60.2236l139.187 -123.025v347.969h96.3525z"></glyph><glyph glyph-name="minimise" unicode="&#xe04b;" d="M416.874 266.402l93.0205 -93.0225h-233.559v233.558l93.1113 -93.1133l94.6348 94.6279l47.418 -47.4258zM95.1729 39.6445l-93.0674 93.0664h233.558v-233.557l-93.0684 93.0645l-94.6777 -94.6709l-47.417 47.4258z"></glyph><glyph glyph-name="maximise" unicode="&#xe04c;" d="M511.5 409.445v-233.561l-93.1123 93.1143l-94.6357 -94.6289l-47.417 47.4268l94.626 94.625l-93.0205 93.0234h233.56zM188.248 133.701l47.417 -47.4268l-94.6738 -94.6729l93.0684 -93.0664h-233.56v233.561l93.0693 -93.0674zM188.193 174.325l-94.625 94.6279 l-93.0234 -93.0234v233.561h233.561l-93.1143 -93.1152l94.6279 -94.6328zM323.716 133.655l94.6729 -94.6709l93.0674 93.0654v-233.56h-233.562l93.0664 93.0654l-94.6719 94.6826z"></glyph><glyph glyph-name="file1-download" unicode="&#xe04d;" d="M191.105 133.346h63.9404l-98.8838 -122.29l-98.8848 122.29h63.9404v104.821h69.8857zM454.419 267.502h0.302734v-351.075c0 -10.4092 -8.51758 -18.9258 -18.9258 -18.9258h-359.593c-10.4092 0 -18.9258 8.5166 -18.9258 18.9258v56.7773h37.8516v-37.8525h321.743 v321.741h-86.1094c-15.0957 0 -27.4463 12.3545 -27.4463 27.4463v86.1104h-208.187v-94.6309h-37.8516v113.557c0 10.4082 8.51562 18.9248 18.9258 18.9248h236.101v-0.0673828c3.0166 -0.276367 6.58691 -2.23926 10.4199 -6.06836l125.861 -125.861 c3.24609 -3.24609 5.15332 -6.30664 5.83301 -9.00098z"></glyph><glyph glyph-name="cld-upload" unicode="&#xe04e;" d="M511.5 80.0098c0 -52.4727 -42.542 -95.0146 -95.0137 -95.0146l-126.633 -0.157227v77.1318h61.959l-95.8125 114.65l-95.8135 -114.65h61.9629v-77.2158l-125.838 -0.157227c-52.917 0 -95.8125 42.8955 -95.8125 95.8135c0 42.7246 27.9658 78.8984 66.5859 91.2539 c-1.77051 8.47559 -2.71094 17.25 -2.71094 26.249c0 70.5537 57.1963 123.491 127.75 123.491c44.0508 0 82.8916 -20.6396 105.859 -53.3135c12.6709 6.8457 27.3994 10.7295 43.1826 10.7295c47.0371 0 85.166 -33.8711 85.166 -80.9082 c0 -8.03027 -1.18945 -15.7705 -3.26953 -23.1387c49.4053 -3.38086 88.4375 -44.5039 88.4375 -94.7637z"></glyph><glyph glyph-name="cld-download" unicode="&#xe04f;" d="M511.5 80.0098c0 -52.4727 -42.542 -95.0146 -95.0137 -95.0146l-142.838 -0.178711l78.1631 93.5332h-61.9619v98.2666h-67.709v-98.2666h-61.9541l78.2012 -93.5742l-142.076 -0.179688c-52.917 0 -95.8125 42.8955 -95.8125 95.8135 c0 42.7246 27.9658 78.8984 66.5859 91.2539c-1.77051 8.47559 -2.71094 17.25 -2.71094 26.249c0 70.5537 57.1963 123.491 127.75 123.491c44.0508 0 82.8916 -20.6396 105.859 -53.3135c12.6709 6.8457 27.3994 10.7295 43.1826 10.7295 c47.0371 0 85.166 -33.8711 85.166 -80.9082c0 -8.03027 -1.18945 -15.7695 -3.26953 -23.1377c49.4053 -3.37988 88.4375 -44.5039 88.4375 -94.7637z"></glyph><glyph glyph-name="cld2-upload" unicode="&#xe050;" d="M423.064 174.773c49.4033 -3.38086 88.4355 -44.5039 88.4365 -94.7646c0 -52.4727 -42.542 -95.0146 -95.0137 -95.0146l-320.174 -0.398438c-52.9189 0 -95.8135 42.8955 -95.8135 95.8135c0 42.7246 27.9658 78.8994 66.5859 91.2549 c-1.77051 8.47559 -2.71094 17.25 -2.71094 26.249c0 70.5527 57.1963 123.491 127.75 123.491c44.0508 0 82.8906 -20.6396 105.859 -53.3135c12.6709 6.84473 27.4004 10.7295 43.1826 10.7295c47.0371 0 85.166 -33.8711 85.166 -80.9082 c0 -8.03125 -1.19043 -15.7705 -3.26855 -23.1387zM416.448 14.8037c35.9922 0 65.2432 29.251 65.2422 65.2051c0 34.1318 -26.6475 62.6982 -60.6602 65.0264c-8.95703 0.611328 -17.1621 5.22852 -22.3359 12.5713c-5.16895 7.33984 -6.75684 16.6182 -4.32031 25.2607 c1.42578 5.05273 2.15039 10.1133 2.15039 15.0439c0 29.1328 -23.7998 51.0996 -55.3584 51.0996c-10.3271 0 -20.3613 -2.4707 -29.0146 -7.14551c-4.48633 -2.42383 -9.34375 -3.58398 -14.1475 -3.58398c-9.42969 0 -18.6455 4.47656 -24.4062 12.6689 c-17.8916 25.4512 -48.3486 40.6445 -81.4736 40.6445c-54.9199 0 -97.9424 -41.1504 -97.9424 -93.6826c0 -6.76562 0.702148 -13.5449 2.08203 -20.1504c3.12305 -14.9443 -5.55176 -29.8369 -20.0957 -34.4873c-27.4287 -8.77441 -45.8604 -34.0381 -45.8604 -62.8643 c0 -36.3965 29.6084 -66.0049 66.0039 -66.0049l125.838 0.157227v47.4072h-61.9629l95.8135 114.65l95.8125 -114.65h-61.959v-47.3232z"></glyph><glyph glyph-name="cld2-download" unicode="&#xe051;" d="M423.064 174.773c49.4033 -3.38086 88.4355 -44.5039 88.4365 -94.7646c0 -52.4727 -42.542 -95.0146 -95.0137 -95.0146l-320.174 -0.398438c-52.9189 0 -95.8135 42.8955 -95.8135 95.8135c0 42.7246 27.9658 78.8994 66.5859 91.2549 c-1.77051 8.47559 -2.71094 17.25 -2.71094 26.249c0 70.5527 57.1963 123.491 127.75 123.491c44.0508 0 82.8906 -20.6396 105.859 -53.3135c12.6709 6.84473 27.4004 10.7295 43.1826 10.7295c47.0371 0 85.166 -33.8711 85.166 -80.9082 c0 -8.03125 -1.19043 -15.7705 -3.26855 -23.1387zM416.448 14.8037c35.9922 0 65.2432 29.251 65.2422 65.2031c0 34.1318 -26.6475 62.6982 -60.6602 65.0264c-8.95703 0.610352 -17.1621 5.22852 -22.3359 12.5703c-5.16895 7.34082 -6.75684 16.6191 -4.32031 25.2617 c1.42578 5.05273 2.15039 10.1123 2.15039 15.0439c0 29.1328 -23.7998 51.0996 -55.3584 51.0996c-10.3271 0 -20.3613 -2.4707 -29.0146 -7.14551c-4.48633 -2.42383 -9.34375 -3.58398 -14.1475 -3.58398c-9.42969 0 -18.6455 4.47656 -24.4062 12.6689 c-17.8916 25.4512 -48.3486 40.6445 -81.4736 40.6445c-54.9199 0 -97.9424 -41.1504 -97.9424 -93.6826c0 -6.7666 0.702148 -13.5449 2.08203 -20.1504c3.12305 -14.9443 -5.55176 -29.8369 -20.0957 -34.4873c-27.4287 -8.77441 -45.8604 -34.0381 -45.8604 -62.8643 c0 -36.3965 29.6084 -66.0049 66.0039 -66.0049l117.193 0.145508l-53.3174 63.8008h61.9531v98.2666h67.709v-98.2666h61.9629l-53.2295 -63.6914z"></glyph><glyph glyph-name="openbook-02" unicode="&#xe052;" d="M494.749 316.199l16.752 0.00683594v-18.5059v-298.716v-8.67578l-8.08789 -3.13965c-1.04004 -0.40332 -25.9951 -9.86816 -74.2715 -9.86816c-25.6572 0 -39.3027 5.25586 -51.3418 9.90137c-11.2988 4.35352 -21.0625 8.11816 -41.5557 8.11816 c-40.459 0 -61.9082 -15.3535 -62.0371 -15.4531l-16.0938 -12.1816h-4.22559l-16.0938 12.1816c-0.199219 0.158203 -21.5449 15.4531 -62.0371 15.4531c-20.4932 0 -30.2568 -3.76465 -41.5557 -8.11816c-12.0391 -4.64453 -25.6846 -9.90137 -51.3418 -9.90137 c-48.2764 0 -73.2314 9.46484 -74.2715 9.86816l-8.08789 3.13965v8.67578v298.716l0.0576172 18.29l16.6807 0.00585938l-0.104492 22.0127l23.1924 -8.99316c0.191406 -0.0703125 19.5166 -7.08008 57.3125 -7.08008c18.0146 0 26.54 3.28516 36.4082 7.08887 c11.2988 4.35352 24.1035 9.28809 48.0439 9.28809c46.0977 0 70.9482 -17.7998 73.6309 -19.8281l0.27832 -0.209961l0.279297 0.209961c2.68262 2.02832 27.5332 19.8281 73.6309 19.8281c23.9395 0 36.7451 -4.93457 48.0439 -9.28809 c9.86816 -3.80371 18.3916 -7.08887 36.4082 -7.08887c37.7969 0 57.1211 7.00977 57.1953 7.03613l23.1914 8.99316v-21.7656zM363.701 316.135c-8.4043 2.86133 -18.2305 5.14453 -33.79 5.14941c-15.6152 0 -28.415 -2.29492 -38.3203 -5.16699h0.00390625 c-1.92969 -0.55957 -3.72559 -1.14453 -5.43555 -1.73438c-0.478516 -0.164062 -0.914062 -0.330078 -1.37598 -0.49707c-1.19336 -0.429688 -2.3418 -0.860352 -3.41797 -1.29297c-0.47168 -0.1875 -0.928711 -0.373047 -1.37305 -0.55957 c-1.02734 -0.431641 -1.99609 -0.855469 -2.90625 -1.27148c-0.333008 -0.15332 -0.691406 -0.307617 -1.00684 -0.458008c-2.36621 -1.11914 -4.30371 -2.15723 -5.78809 -3.01855c-0.223633 -0.130859 -0.412109 -0.245117 -0.620117 -0.368164 c-0.483398 -0.289062 -0.935547 -0.5625 -1.30176 -0.795898c-0.166016 -0.107422 -0.332031 -0.212891 -0.474609 -0.303711c-0.316406 -0.208008 -0.598633 -0.395508 -0.798828 -0.532227c-0.0664062 -0.0458984 -0.162109 -0.112305 -0.21582 -0.150391 c-0.170898 -0.121094 -0.320312 -0.228516 -0.320312 -0.228516v-290.76s21.6416 16.376 63.3516 16.376c41.6807 0 42.2246 -16.376 84.4521 -16.376c42.2363 0 63.3535 8.19141 63.3535 8.19141v290.756s-21.1172 -8.1875 -63.3535 -8.1875 c-1.51465 0 -2.96094 0.0253906 -4.375 0.0654297c-0.446289 0.015625 -0.869141 0.0332031 -1.30664 0.0507812c-0.960938 0.0361328 -1.90039 0.0810547 -2.81152 0.134766c-0.46582 0.0253906 -0.927734 0.0576172 -1.38477 0.0888672 c-0.899414 0.0634766 -1.77246 0.136719 -2.62793 0.217773c-0.370117 0.0361328 -0.749023 0.0673828 -1.11035 0.104492c-1.19336 0.125 -2.35449 0.259766 -3.46387 0.414062c-0.0751953 0.0117188 -0.142578 0.0214844 -0.216797 0.0322266 c-1.04004 0.147461 -2.04297 0.308594 -3.01953 0.478516c-0.353516 0.0595703 -0.699219 0.126953 -1.04883 0.19043c-0.689453 0.128906 -1.37207 0.261719 -2.03711 0.40332c-0.357422 0.0751953 -0.714844 0.150391 -1.06445 0.229492 c-0.666016 0.147461 -1.31348 0.301758 -1.9541 0.459961c-0.295898 0.0712891 -0.595703 0.142578 -0.886719 0.217773c-0.892578 0.229492 -1.76562 0.466797 -2.61426 0.714844c-0.158203 0.0429688 -0.308594 0.0927734 -0.462891 0.138672 c-0.710938 0.209961 -1.4082 0.425781 -2.0957 0.645508c-0.311523 0.0966797 -0.611328 0.199219 -0.918945 0.298828c-0.524414 0.174805 -1.04395 0.349609 -1.55957 0.526367c-0.320312 0.111328 -0.637695 0.222656 -0.952148 0.334961 c-0.507812 0.178711 -1.01074 0.361328 -1.51465 0.544922c-0.286133 0.105469 -0.582031 0.211914 -0.868164 0.317383c-0.611328 0.229492 -1.21973 0.457031 -1.82617 0.688477c-1.7002 0.647461 -3.38477 1.30371 -5.08984 1.95215 c-0.169922 0.0615234 -0.336914 0.126953 -0.506836 0.19043c-0.670898 0.253906 -1.34766 0.504883 -2.0293 0.75293c-0.142578 0.0527344 -0.279297 0.104492 -0.419922 0.15625c-0.819336 0.296875 -1.65137 0.589844 -2.49609 0.878906zM182.091 321.279 c-15.7109 0 -25.5752 -2.3291 -34.0332 -5.22852v0c-0.831055 -0.285156 -1.64941 -0.578125 -2.45703 -0.871094l-0.436523 -0.160156c-0.6875 -0.250977 -1.36816 -0.504883 -2.04199 -0.760742c-0.128906 -0.0488281 -0.257812 -0.0986328 -0.391602 -0.146484 c-1.80078 -0.686523 -3.58008 -1.37793 -5.38574 -2.06543c-0.50293 -0.188477 -1.00684 -0.37793 -1.51367 -0.566406c-0.299805 -0.111328 -0.603516 -0.22168 -0.90625 -0.331055c-0.495117 -0.18457 -0.994141 -0.362305 -1.49707 -0.541016 c-0.308594 -0.108398 -0.616211 -0.216797 -0.923828 -0.322266c-0.544922 -0.1875 -1.09668 -0.37207 -1.65039 -0.554688c-0.270508 -0.0878906 -0.540039 -0.179688 -0.811523 -0.266602c-0.827148 -0.261719 -1.66309 -0.520508 -2.52832 -0.770508 c-0.107422 -0.03125 -0.228516 -0.0615234 -0.336914 -0.0947266c-0.755859 -0.21582 -1.5293 -0.423828 -2.31543 -0.62793c-0.303711 -0.078125 -0.615234 -0.151367 -0.922852 -0.226562c-0.628906 -0.154297 -1.26953 -0.304688 -1.92676 -0.451172 c-0.34082 -0.0751953 -0.688477 -0.152344 -1.04297 -0.224609c-0.686523 -0.144531 -1.38965 -0.279297 -2.10059 -0.412109c-0.324219 -0.0585938 -0.641602 -0.121094 -0.96875 -0.176758c-1.04395 -0.181641 -2.11328 -0.353516 -3.22852 -0.507812 c-0.0654297 -0.0078125 -0.136719 -0.0146484 -0.203125 -0.0244141c-1.04785 -0.142578 -2.1377 -0.271484 -3.25195 -0.385742c-0.378906 -0.0400391 -0.776367 -0.0732422 -1.16504 -0.109375c-0.839844 -0.0771484 -1.69531 -0.149414 -2.57812 -0.211914 c-0.453125 -0.03125 -0.90918 -0.0625 -1.37598 -0.0888672c-0.905273 -0.0546875 -1.84277 -0.0957031 -2.79102 -0.133789c-0.439453 -0.0166016 -0.869141 -0.0361328 -1.31641 -0.0498047c-1.40234 -0.0390625 -2.8457 -0.0654297 -4.35156 -0.0654297 c-42.2373 0 -63.3545 8.1875 -63.3545 8.1875v-290.756s21.1172 -8.19238 63.3545 -8.19238c42.2256 0 42.7705 16.376 84.4521 16.376c41.71 0 63.3516 -16.376 63.3516 -16.376v290.761s-0.145508 0.107422 -0.320312 0.228516 c-0.0498047 0.0380859 -0.150391 0.104492 -0.21582 0.150391c-0.195312 0.134766 -0.474609 0.319336 -0.782227 0.521484c-0.149414 0.0986328 -0.320312 0.206055 -0.495117 0.316406c-0.361328 0.230469 -0.805664 0.499023 -1.27637 0.782227 c-0.208008 0.125 -0.402344 0.240234 -0.631836 0.375977c-1.47656 0.855469 -3.40527 1.88965 -5.75977 3.00391c-0.324219 0.15332 -0.69043 0.313477 -1.03516 0.47168c-0.894531 0.410156 -1.84277 0.826172 -2.84863 1.24805 c-0.461914 0.193359 -0.941406 0.386719 -1.42285 0.580078c-1.03906 0.417969 -2.1543 0.834961 -3.30273 1.25098c-0.493164 0.179688 -0.967773 0.358398 -1.47949 0.535156c-1.68848 0.583984 -3.45508 1.16211 -5.36035 1.71484v0 c-9.92188 2.88574 -22.7549 5.19629 -38.4199 5.19629zM337.748 253.445c-15.752 0 -26.9717 -3.66016 -33.5342 -6.64648v11.7734c7.83496 2.95996 19.0215 5.72559 33.5342 5.72559c15.2539 0 23.417 -3.14355 30.6152 -5.91699 c6.29199 -2.42383 11.7275 -4.52051 23.2051 -4.52051c19.0244 0 30.6729 2.78125 34.7646 3.95898v-11.2285c-6.29199 -1.53027 -17.877 -3.58398 -34.7646 -3.58398c-26.9102 0 -27.2598 10.4385 -53.8203 10.4385zM143.637 258.381 c7.19824 2.77344 15.3613 5.91699 30.6152 5.91699c14.5127 0 25.6992 -2.76562 33.5342 -5.72559v-11.7725c-6.56348 2.98633 -17.7822 6.64648 -33.5342 6.64648c-26.5605 0 -26.9102 -10.4385 -53.8203 -10.4385c-16.8877 0 -28.4736 2.05371 -34.7646 3.58398v11.2324 c4.1582 -1.19824 15.7939 -3.96289 34.7646 -3.96289c11.4775 0 16.9131 2.0957 23.2051 4.51953zM337.748 168.278c-15.752 0 -26.9717 -3.65918 -33.5342 -6.64551v11.7725c7.83496 2.96094 19.0215 5.72656 33.5342 5.72656c15.2539 0 23.417 -3.14355 30.6152 -5.91797 c6.29199 -2.42383 11.7275 -4.51953 23.2051 -4.51953c19.0244 0 30.6729 2.78125 34.7646 3.95898v-11.2285c-6.29199 -1.53027 -17.877 -3.58496 -34.7646 -3.58496c-26.9102 0 -27.2598 10.4385 -53.8203 10.4385zM174.252 179.132 c14.5127 0 25.6992 -2.76562 33.5342 -5.72656v-11.7725c-6.56348 2.98633 -17.7822 6.64551 -33.5342 6.64551c-26.5605 0 -26.9102 -10.4385 -53.8203 -10.4385c-16.8877 0 -28.4736 2.05469 -34.7646 3.58496v11.2324c4.1582 -1.19824 15.7939 -3.96289 34.7646 -3.96289 c11.4785 0 16.9131 2.0957 23.2051 4.51953c7.19824 2.77441 15.3613 5.91797 30.6152 5.91797zM337.748 83.1113c-15.752 0 -26.9717 -3.65918 -33.5342 -6.64551v11.7725c7.83496 2.96094 19.0215 5.72656 33.5342 5.72656c15.2539 0 23.417 -3.14453 30.6152 -5.91797 c6.29199 -2.4248 11.7275 -4.52051 23.2051 -4.52051c19.0244 0 30.6729 2.78125 34.7646 3.95898v-11.2285c-6.29199 -1.53027 -17.877 -3.58496 -34.7646 -3.58496c-26.9102 0.00195312 -27.2598 10.4395 -53.8203 10.4395zM174.252 93.9658 c14.5127 0 25.6992 -2.76562 33.5342 -5.72656v-11.7725c-6.56348 2.98535 -17.7822 6.64551 -33.5342 6.64551c-26.5605 0 -26.9102 -10.4385 -53.8203 -10.4385c-16.8877 0 -28.4736 2.05469 -34.7646 3.58496v11.2314c4.1582 -1.19727 15.7939 -3.96289 34.7646 -3.96289 c11.4785 0 16.9131 2.0957 23.2051 4.52051c7.19824 2.77344 15.3613 5.91797 30.6152 5.91797zM337.748 125.695c-15.752 0 -26.9717 -3.66016 -33.5342 -6.64648v11.7725c7.83496 2.96094 19.0215 5.72656 33.5342 5.72656c15.2539 0 23.417 -3.14355 30.6152 -5.91797 c6.29199 -2.42383 11.7275 -4.51953 23.2051 -4.51953c19.0244 0 30.6729 2.78027 34.7646 3.95898v-11.2295c-6.29199 -1.53027 -17.877 -3.58496 -34.7646 -3.58496c-26.9102 0.00195312 -27.2598 10.4404 -53.8203 10.4404zM174.252 136.549 c14.5127 0 25.6992 -2.76562 33.5342 -5.72656v-11.7725c-6.56348 2.98535 -17.7822 6.64648 -33.5342 6.64648c-23.6875 0 -26.5771 -8.28418 -46.002 -10.0801v10.8936c6.52148 0.71582 10.7285 2.3252 15.3867 4.12109c7.19824 2.77441 15.3613 5.91797 30.6152 5.91797z M337.748 210.862c-15.752 0 -26.9717 -3.66016 -33.5342 -6.64648v11.7734c7.83496 2.96094 19.0215 5.72559 33.5342 5.72559c15.2539 0 23.417 -3.14355 30.6152 -5.91699c4.66211 -1.7959 8.86523 -3.40625 15.3906 -4.125v-10.8916 c-19.4287 1.79688 -22.3184 10.0811 -46.0059 10.0811zM174.252 221.715c14.5127 0 25.6992 -2.76465 33.5342 -5.72559v-11.7734c-6.56348 2.98633 -17.7822 6.64648 -33.5342 6.64648c-26.5605 0 -26.9102 -10.4385 -53.8203 -10.4385 c-16.8877 0 -28.4736 2.05371 -34.7646 3.58398v11.2324c4.1582 -1.19824 15.7939 -3.96289 34.7646 -3.96289c11.4785 0 16.9131 2.0957 23.2051 4.51953c7.19824 2.77539 15.3613 5.91797 30.6152 5.91797z"></glyph><glyph glyph-name="glasses" unicode="&#xe053;" d="M481.701 174.889c18.7422 -19.3408 30.2988 -45.6846 30.2988 -74.7451c0 -59.3457 -48.1104 -107.455 -107.452 -107.455c-59.3467 0 -107.456 48.1094 -107.456 107.455c0 0.624023 0.0371094 1.24414 0.0449219 1.86328 c-8.44531 11.1123 -26.1318 18.4316 -40.6367 18.4316s-32.1914 -7.32031 -40.6367 -18.4316c0.0078125 -0.619141 0.0458984 -1.23926 0.0458984 -1.86328c0 -59.3457 -48.1104 -107.455 -107.452 -107.455c-59.3467 0 -107.457 48.1094 -107.457 107.455 c0 24.71 8.36328 47.457 22.3848 65.6084l58.5234 146.311h21.292h25.5479v-21.292h-34.0664l-38.7578 -96.8975c15.5322 8.72363 33.4434 13.7227 52.5312 13.7227c50.9297 0 93.5547 -35.4463 104.625 -83.0078c11.3857 10.6133 26.6191 17.1426 43.4189 17.1426 c16.8008 0 32.0332 -6.53027 43.4189 -17.1426c11.0703 47.5615 53.6953 83.0078 104.629 83.0078c16.9082 0 32.8994 -3.91797 47.1289 -10.875l-37.6182 94.0488h-34.0664v21.293h25.5508h21.291zM108.457 13.9785c47.5059 0 86.1602 38.6543 86.1611 86.1641 c0 47.5088 -38.6543 86.1611 -86.1611 86.1611c-47.5107 0 -86.165 -38.6523 -86.165 -86.1611c0 -47.5107 38.6543 -86.1641 86.165 -86.1641zM404.548 13.9785c47.5068 0 86.1602 38.6543 86.1602 86.1641c0 47.5088 -38.6533 86.1611 -86.1602 86.1611 c-47.5117 0 -86.165 -38.6523 -86.165 -86.1611c0 -47.5107 38.6533 -86.1641 86.165 -86.1641z"></glyph><glyph glyph-name="pencil-2" unicode="&#xe054;" d="M409.3 408.499l102.2 -102.201l-374.733 -374.729l-136.267 -34.0664l34.0664 136.268zM59.2637 -72.1191l64.7275 16.1797l-76.6504 76.6504l-16.1807 -64.7285zM101.91 20.9062l324.424 324.424l-20.5859 20.584l-324.424 -324.424z"></glyph><glyph glyph-name="mobile" unicode="&#xe055;" d="M382.303 408.5c7.17578 0 12.9922 -5.81641 12.9922 -12.9883v-485.017c0 -7.17871 -5.81641 -12.9951 -12.9922 -12.9951h-126.301h-126.305c-7.17285 0 -12.9922 5.81641 -12.9922 12.9951v485.017c0 7.17188 5.82031 12.9883 12.9922 12.9883h126.305h126.301z M227.919 367.146v-11.8125h28.083h28.0801v11.8125h-28.0801h-28.083zM256.002 -81.8027c15.5449 0.234375 28.0801 12.0283 28.0801 26.5615c0 14.542 -12.5352 26.333 -28.0801 26.5635c-15.5449 -0.231445 -28.083 -12.0225 -28.083 -26.5635 c0 -14.5342 12.5381 -26.3281 28.083 -26.5615zM371.672 -20.7773v347.559h-115.67h-115.674v-347.559h115.674h115.67zM268.814 -54.6836c0 -7.0752 -5.73438 -12.8096 -12.8135 -12.8096c-7.07617 0 -12.8096 5.7334 -12.8096 12.8096 c0 7.0752 5.73242 12.8096 12.8096 12.8096c7.0791 0 12.8135 -5.7334 12.8135 -12.8096z"></glyph><glyph glyph-name="tablet" unicode="&#xe056;" d="M454.456 408.5c7.17578 0 12.9922 -5.81641 12.9922 -12.9883v-485.017c0 -7.17871 -5.81641 -12.9951 -12.9922 -12.9951h-321.801h-75.1123c-7.17578 0 -12.9922 5.81641 -12.9922 12.9951v485.017c0 7.17188 5.81641 12.9883 12.9922 12.9883h75.1123h321.801z M235.079 367.146v-11.8125h28.083h28.0791v11.8125h-28.0791h-28.083zM263.162 -81.8027c15.5449 0.234375 28.0791 12.0283 28.0791 26.5615c0 14.542 -12.5342 26.333 -28.0791 26.5635c-15.5459 -0.231445 -28.083 -12.0225 -28.083 -26.5635 c0 -14.5342 12.5371 -26.3281 28.083 -26.5615zM443.825 -20.7773v347.559h-311.17h-64.4814v-347.559h311.171h64.4805zM275.975 -54.6836c0 -7.0752 -5.73242 -12.8096 -12.8125 -12.8096c-7.07617 0 -12.8105 5.7334 -12.8105 12.8096 c0 7.0752 5.7334 12.8096 12.8105 12.8096c7.0791 0 12.8125 -5.7334 12.8125 -12.8096z"></glyph><glyph glyph-name="camera" unicode="&#xe057;" d="M351.812 131.708c0 -52.9121 -42.8906 -95.8135 -95.8125 -95.8135c-52.9141 0 -95.8135 42.9004 -95.8135 95.8135c0 52.9141 42.8994 95.8135 95.8135 95.8135c52.9219 0 95.8125 -42.8994 95.8125 -95.8135zM511.5 302.042v-340.667h-511v340.667h42.583h127.75 h85.167v21.291c0 11.7598 9.53516 21.292 21.292 21.292h127.75c11.7598 0 21.291 -9.53125 21.291 -21.292v-21.292zM383.75 131.708c0 70.5537 -57.1924 127.75 -127.75 127.75c-70.5527 0 -127.75 -57.1973 -127.75 -127.75s57.1973 -127.75 127.75 -127.75 c70.5576 0 127.75 57.1973 127.75 127.75z"></glyph><glyph glyph-name="key-modern" unicode="&#xe058;" d="M349.076 408.5c87.3896 0 158.234 -70.8447 158.234 -158.23c0 -87.3955 -70.8438 -158.235 -158.233 -158.235c-25.4766 0 -49.5303 6.05859 -70.8516 16.7539l-71.5586 -68.877l-33.5088 -0.931641l-7.44434 -5.58398l-2.79297 -35.3701l-5.58398 -4.6543 l-31.6455 -0.927734l-7.44531 -7.44922l2.78906 -31.6436l-12.0996 -8.37695l-30.7178 0.925781l-7.44336 -7.44434l2.78906 -32.5781l-8.37793 -8.37695l-51.1895 4.6543l-9.30566 9.30957l1.85645 56.7764l202.987 207.396 c-11.915 22.2354 -18.6885 47.6406 -18.6885 74.6318c0 87.3867 70.8379 158.231 158.23 158.231zM378.546 241.09c25.2139 0 45.6533 21.5439 45.6533 48.1191c0 26.5791 -20.4395 48.1221 -45.6533 48.1221c-25.2119 0 -45.6523 -21.543 -45.6523 -48.1221 c0 -26.5752 20.4404 -48.1191 45.6523 -48.1191z"></glyph><glyph glyph-name="key-classic" unicode="&#xe059;" d="M390.05 243.257l-324.939 -324.937l-22.9131 22.9141l27.4209 27.4219l-18.5469 18.5479c0.636719 0.469727 1.25586 0.973633 1.83105 1.55078c5.70508 5.70508 5.95898 14.7041 0.564453 20.0986c-5.39355 5.39453 -14.3926 5.14062 -20.0977 -0.564453 c-0.578125 -0.574219 -1.08594 -1.19434 -1.55176 -1.83105l-31.3174 31.3193l31.5537 31.5537l27.7949 -27.7959l0.304688 0.300781c4.53223 -2.36328 11.082 -0.936523 15.8516 3.8291c2.52051 2.52539 4.10059 5.54395 4.68359 8.50391 c0.889648 2.25391 0.660156 5.02344 -0.624023 7.57812l0.822266 0.822266l-27.7949 27.7998l21.4121 21.4121l33.8047 -33.8096c-4.76953 -4.77441 -3.84668 -13.4365 2.06738 -19.3457c5.91309 -5.91309 14.5752 -6.83887 19.3457 -2.06641l13.8984 -13.8965 l223.518 223.512l-0.75293 0.749023s-26.5488 29.2227 -29.3018 56.2363c-2.79785 27.4785 20.6768 47.0527 20.6768 47.0527s19.3193 25.8496 52.6924 14.6553c16.2764 -5.45605 33.126 -16.626 46.4375 -26.9434c7.84766 4.19629 16.6758 3.91699 22.0156 -1.42578 c4.83789 -4.83691 5.52246 -12.5381 2.49121 -19.7822c0.702148 -0.682617 1.07617 -1.06055 1.07617 -1.06055s26.8232 -31.3975 28.8447 -57.8125c2.1543 -28.166 -15.3203 -44.3672 -15.3203 -44.3672s-23.5215 -25.9707 -53.7646 -20.8389 c-24.54 4.16211 -52.1826 30.6191 -52.1826 30.6191zM377.648 349.569c-14.1055 -14.1094 -3.67676 -47.4102 23.292 -74.3789c26.9727 -26.9727 60.2734 -37.3975 74.3789 -23.292c14.1094 14.1055 3.68066 47.4062 -23.291 74.3789 c-26.9697 26.9678 -60.2715 37.3975 -74.3799 23.292z"></glyph><glyph glyph-name="lock-close" unicode="&#xe05a;" d="M419.52 183.66h40.8809v-286.16h-408.801v17.8848v268.275h40.8789v51.0996c0 95.9521 73.2109 173.74 163.521 173.74c90.3125 0 163.52 -77.7881 163.52 -173.74v-51.0996zM256 -30.9609c22.5762 0 40.8799 18.3047 40.8789 40.8809 c0 15.1211 -8.23145 28.293 -20.4395 35.3662v66.834h-40.8799v-66.834c-12.208 -7.07324 -20.4395 -20.2451 -20.4395 -35.3662c0 -22.5762 18.3037 -40.8809 40.8799 -40.8809zM133.36 183.66h245.28v51.0996c0 73.2617 -55.0166 132.86 -122.641 132.86 s-122.64 -59.5986 -122.64 -132.86v-51.0996z"></glyph><glyph glyph-name="lock-open" unicode="&#xe05b;" d="M419.52 183.66h40.8809v-107.311v-178.85h-408.801v17.8848v160.965v107.311h40.8789h286.162v51.0996c0 73.2617 -55.0166 132.86 -122.641 132.86c-50.9082 0 -94.627 -33.8018 -113.138 -81.7598h-43.1641c20.5352 71.0127 82.7295 122.64 156.302 122.64 c90.3125 0 163.52 -77.7881 163.52 -173.74v-51.0996zM256 -30.9609c22.5762 0 40.8799 18.3047 40.8789 40.8809c0 15.1211 -8.23145 28.293 -20.4395 35.3662v66.834h-40.8799v-66.834c-12.208 -7.07324 -20.4395 -20.2451 -20.4395 -35.3662 c0 -22.5762 18.3037 -40.8809 40.8799 -40.8809z"></glyph><glyph glyph-name="user-lock" unicode="&#xe05c;" d="M511.5 -70.5625h-212.917v9.31445v83.8359v55.8906h21.292v26.6143c0 49.9756 38.1299 90.4902 85.167 90.4902s85.166 -40.5146 85.166 -90.4902v-26.6143h21.292v-55.8906v-93.1504zM426.333 -12.0107c0 7.87695 -4.28711 14.7373 -10.6455 18.4229v34.8066h-21.293 v-34.8066c-6.35742 -3.68555 -10.6455 -10.5459 -10.6455 -18.4229c0 -11.7607 9.53125 -21.291 21.292 -21.291s21.292 9.53027 21.292 21.291zM468.917 105.094c0 38.1562 -28.6523 69.1982 -63.875 69.1982s-63.875 -31.042 -63.875 -69.1982v-26.6133h127.75v26.6133z M264.517 22.5889v-35.4062h-264.017v63.4971c1.65527 7.48047 4.0957 14.6045 7.38379 21.3604c2.74023 5.88867 6.49512 11.5361 11.2363 17.1035c4.75684 5.59473 10.8535 9.73535 18.3428 12.4922c3.83789 1.26562 123.329 51.9287 128.989 54.4775v18.3594 c-0.353516 1.43945 -0.952148 3.69141 -1.7627 6.7041c-0.845703 3.01562 -1.69336 6.06738 -2.62012 9.18457c-1.07324 3.62207 -2.37402 7.55371 -3.82617 11.7666c-5.28906 9.8584 -9.49805 21.0166 -12.6006 33.5283 c-3.10254 12.5088 -4.66992 25.7988 -4.66992 39.8525c0 18.4512 1.97949 34.0645 5.88867 46.833c3.94629 12.79 9.27734 23.1865 16.0518 31.208c6.7373 8.03906 14.6299 13.8965 23.6826 17.5352c9.0293 3.67188 18.7393 5.47656 29.1562 5.47656 c10.2305 0 19.8486 -1.75098 28.8809 -5.33887c9.04883 -3.56738 16.9785 -9.30176 23.8242 -17.2383c6.8584 -7.95312 12.2256 -18.3506 16.1719 -31.2393c3.93945 -12.8418 5.88867 -28.6279 5.88867 -47.2354c0 -13.7061 -1.50977 -26.6826 -4.52051 -39.0205 c-3.01855 -12.3369 -7.18164 -23.4111 -12.4629 -33.3047c-1.45996 -4.52246 -2.83594 -8.82031 -4.0957 -12.8223c-1.10352 -3.5 -2.11426 -6.82715 -3.02051 -9.97949c-0.922852 -3.24121 -1.36816 -5.58008 -1.36816 -7.02246v-19.1533 c2.05078 -0.891602 12.875 -5.58496 26.373 -11.4297c-3.16113 -10.374 -5.08496 -21.3232 -5.51758 -32.667c-12.5381 -5.03223 -21.3887 -17.2959 -21.3887 -31.6299v-55.8916z"></glyph><glyph glyph-name="sign-in" unicode="&#xe05d;" d="M186.784 307.45l191.412 -154.775l-191.412 -154.776v100.083h-164.067v109.386h164.066zM133.804 408.174v-0.000976562h355.479v-511h-355.479l44.4355 44.4365h266.607v422.13h-266.607z"></glyph><glyph glyph-name="sign-in-alt" unicode="&#xe05e;" d="M325.216 -2.10156l-191.412 154.775l191.412 154.776v-100.083h164.067v-109.385h-164.067v-100.084zM67.1523 -58.3906l266.607 0.000976562l44.4355 -44.4365h-355.479v511h355.479l-44.4355 -44.4346h-266.608v-422.13z"></glyph><glyph glyph-name="cir-arrow-left" unicode="&#xe05f;" d="M256 365.917c-117.404 0 -212.917 -95.5127 -212.917 -212.917c0 -117.403 95.5127 -212.917 212.917 -212.917c117.403 0 212.917 95.5137 212.917 212.917c0 117.404 -95.5137 212.917 -212.917 212.917zM256 408.5v0c141.107 0 255.5 -114.393 255.5 -255.5 s-114.393 -255.5 -255.5 -255.5s-255.5 114.393 -255.5 255.5s114.393 255.5 255.5 255.5zM319.875 273.514v-241.027l-149.042 120.514z"></glyph><glyph glyph-name="cir-arrow-right" unicode="&#xe060;" d="M256 365.917c-117.404 0 -212.917 -95.5127 -212.917 -212.917c0 -117.403 95.5127 -212.917 212.917 -212.917c117.403 0 212.917 95.5137 212.917 212.917c0 117.404 -95.5137 212.917 -212.917 212.917zM256 408.5v0c141.107 0 255.5 -114.393 255.5 -255.5 s-114.393 -255.5 -255.5 -255.5s-255.5 114.393 -255.5 255.5s114.393 255.5 255.5 255.5zM192.125 32.4863v241.027l149.042 -120.514z"></glyph><glyph glyph-name="cl-chevron-left" unicode="&#xe061;" d="M256 408.5c141.107 0 255.5 -114.393 255.5 -255.5s-114.393 -255.5 -255.5 -255.5s-255.5 114.393 -255.5 255.5s114.393 255.5 255.5 255.5zM341.167 43.7051l-109.299 109.295l109.299 109.294l-39.7432 39.7471l-109.299 -109.294l-39.7471 -39.7471 l39.7471 -39.7471l109.299 -109.295z"></glyph><glyph glyph-name="cl-chevron-right" unicode="&#xe062;" d="M256 408.5c141.107 0 255.5 -114.393 255.5 -255.5s-114.393 -255.5 -255.5 -255.5s-255.5 114.393 -255.5 255.5s114.393 255.5 255.5 255.5zM322.711 113.253l39.7471 39.7471l-39.748 39.7471l-109.294 109.294l-39.7471 -39.7471l109.299 -109.294l-109.298 -109.295 l39.7471 -39.7471z"></glyph><glyph glyph-name="grid-large" unicode="&#xe063;" d="M238.38 161.81h-193.828v246.69h193.828v-246.69zM467.448 408.5v-246.69h-193.828v246.69h193.828zM238.38 126.569v-229.069h-193.828v229.069h193.828zM467.448 126.569v-229.069h-193.828v229.069h193.828z"></glyph><glyph glyph-name="grid-small" unicode="&#xe064;" d="M344.104 161.81h-70.4834v105.726h70.4824zM344.104 408.5l-0.000976562 -105.724h-70.4824v105.724h70.4834zM344.104 126.569l-0.000976562 -88.1045h-70.4824v88.1045h70.4834zM344.104 3.22363l-0.000976562 -105.724h-70.4824v105.724h70.4834zM467.448 267.535 v-105.726h-88.1045v105.726h88.1045zM467.448 408.5v-105.724h-88.1045v105.724h88.1045zM467.448 126.569v-88.1045h-88.1045v88.1045h88.1045zM467.448 3.22363v-105.724h-88.1045v105.724h88.1045zM167.896 161.81v105.726h70.4834v-105.726h-70.4834zM167.896 302.776 v105.724h70.4834v-105.724h-70.4834zM167.896 38.4658v88.1045h70.4834v-88.1045h-70.4834zM167.896 -102.5v105.724h70.4834v-105.724h-70.4834zM44.5518 161.81v105.726h88.1045v-105.726h-88.1045zM44.5518 302.776v105.724h88.1045v-105.724h-88.1045zM44.5518 38.4658 v88.1045h88.1045v-88.1045h-88.1045zM44.5518 -102.5v105.724h88.1045v-105.724h-88.1045z"></glyph><glyph glyph-name="cld-add" unicode="&#xe065;" d="M423.064 174.773c49.4033 -3.38086 88.4355 -44.5039 88.4365 -94.7646c0 -52.4727 -42.542 -95.0146 -95.0137 -95.0146l-320.174 -0.398438c-52.9189 0 -95.8135 42.8955 -95.8135 95.8135c0 42.7246 27.9658 78.8994 66.5859 91.2549 c-1.77051 8.47559 -2.71094 17.25 -2.71094 26.249c0 70.5527 57.1963 123.491 127.75 123.491c44.0508 0 82.8906 -20.6396 105.859 -53.3135c12.6709 6.84473 27.4004 10.7295 43.1826 10.7295c47.0371 0 85.166 -33.8711 85.166 -80.9082 c0 -8.03125 -1.19043 -15.7705 -3.26855 -23.1387zM341.167 84.3555v56.7842l-56.7764 -0.00390625l0.00390625 56.7764h-56.7881v-56.7803l-56.7725 0.0078125v-56.7842h56.7764l-0.00390625 -56.7764h56.7881l-0.00878906 56.7764h56.7812z"></glyph><glyph glyph-name="cld-lock" unicode="&#xe066;" d="M296.874 139.996v-17.0293h-81.7559v17.0293c0 24.4229 18.3428 44.2881 40.8779 44.2881c22.543 0 40.8779 -19.8652 40.8779 -44.2881zM511.5 80.0098c0 -52.4727 -42.542 -95.0146 -95.0137 -95.0146l-320.175 -0.398438c-52.917 0 -95.8125 42.8955 -95.8125 95.8135 c0 42.7246 27.9658 78.8984 66.5859 91.2539c-1.77051 8.47559 -2.71094 17.25 -2.71094 26.249c0 70.5537 57.1963 123.491 127.75 123.491c44.0508 0 82.8916 -20.6396 105.859 -53.3135c12.6709 6.8457 27.3994 10.7295 43.1826 10.7295 c47.0371 0 85.166 -33.8711 85.166 -80.9082c0 -8.03027 -1.18945 -15.7705 -3.26953 -23.1387c49.4053 -3.38086 88.4375 -44.5039 88.4375 -94.7637zM324.129 122.967h-13.623v17.0293c0 31.9873 -24.4023 57.916 -54.5098 57.916 c-30.0986 0 -54.501 -25.9287 -54.501 -57.916v-17.0293h-13.624v-35.7705v-53.6533v-5.96289h136.258v59.6162v35.7705zM262.812 76.8408c4.07031 -2.35352 6.81543 -6.74512 6.81543 -11.7852c0 -7.52637 -6.10938 -13.6279 -13.6318 -13.6279 c-7.52734 0 -13.623 6.10156 -13.623 13.6279c0 5.04004 2.74512 9.43164 6.81641 11.7852v22.2773h13.623v-22.2773z"></glyph><glyph glyph-name="cld-warning" unicode="&#xe067;" d="M423.064 174.773c49.4033 -3.38086 88.4355 -44.5039 88.4365 -94.7646c0 -52.4727 -42.542 -95.0146 -95.0137 -95.0146l-320.174 -0.398438c-52.9189 0 -95.8135 42.8955 -95.8135 95.8135c0 42.7246 27.9658 78.8994 66.5859 91.2549 c-1.77051 8.47559 -2.71094 17.25 -2.71094 26.249c0 70.5527 57.1963 123.491 127.75 123.491c44.0508 0 82.8906 -20.6396 105.859 -53.3135c12.6709 6.84473 27.4004 10.7295 43.1826 10.7295c47.0371 0 85.166 -33.8711 85.166 -80.9082 c0 -8.03125 -1.19043 -15.7705 -3.26855 -23.1387zM280.194 27.5791v30.1992h-48.3896v-30.1992h48.3896zM275.521 76.6582l5.50977 121.254h-50.0615l5.51074 -121.254h39.041z"></glyph><glyph glyph-name="cld-search" unicode="&#xe068;" d="M267.765 157.05c8.30078 -7.60156 13.1455 -18.0059 13.6445 -29.2842c0.491211 -11.2852 -3.42578 -22.0723 -11.0361 -30.3682c-7.97656 -8.71777 -19.333 -13.7119 -31.1475 -13.7119c-10.5664 0 -20.6924 3.93848 -28.499 11.0918 c-8.31641 7.61719 -13.1699 18.0146 -13.6641 29.2793c-0.486328 11.2783 3.43066 22.0576 11.0449 30.374c7.97949 8.70312 19.333 13.7021 31.1543 13.7021c10.5752 0 20.6973 -3.93457 28.5029 -11.083zM511.5 80.0098c0 -52.4727 -42.542 -95.0146 -95.0137 -95.0146 l-320.175 -0.398438c-52.917 0 -95.8125 42.8955 -95.8125 95.8135c0 42.7246 27.9658 78.8984 66.5859 91.2539c-1.77051 8.47559 -2.71094 17.25 -2.71094 26.249c0 70.5537 57.1963 123.491 127.75 123.491c44.0508 0 82.8916 -20.6396 105.859 -53.3135 c12.6709 6.8457 27.3994 10.7295 43.1826 10.7295c47.0371 0 85.166 -33.8711 85.166 -80.9082c0 -8.03027 -1.18945 -15.7705 -3.26953 -23.1387c49.4053 -3.38086 88.4375 -44.5039 88.4375 -94.7637zM344.723 49.0625l-43.6318 39.9502 c17.4453 29.0527 12.3105 66.6152 -13.2119 89.999c-13.3145 12.1924 -30.5811 18.9004 -48.6172 18.9004c-20.1514 0 -39.5137 -8.51758 -53.1113 -23.3711c-26.8145 -29.2676 -24.8145 -74.9033 4.46191 -101.734c13.3027 -12.1875 30.5723 -18.8994 48.6123 -18.8994 c15.2412 0 29.9756 4.79492 42.1846 13.6279l43.6279 -39.9551z"></glyph><glyph glyph-name="noway" unicode="&#xe069;" d="M256 408.5c141.108 0 255.5 -114.391 255.5 -255.5c0 -141.108 -114.392 -255.5 -255.5 -255.5c-141.109 0 -255.5 114.392 -255.5 255.5c0 141.109 114.391 255.5 255.5 255.5zM51.5996 153c0 -47.1631 16.0986 -90.6123 43.0303 -125.236l286.604 286.601 c-34.6221 26.9365 -78.0713 43.0361 -125.234 43.0361c-112.705 0 -204.4 -91.6914 -204.4 -204.4zM256 -51.4004c112.709 0 204.4 91.6914 204.4 204.4c0 47.1631 -16.0986 90.6133 -43.0312 125.235l-286.604 -286.604c34.627 -26.9316 78.0723 -43.0312 125.235 -43.0312 z"></glyph><glyph glyph-name="cld2-user" unicode="&#xe06a;" d="M423.064 174.773c49.4033 -3.38086 88.4355 -44.5039 88.4365 -94.7646c0 -52.4727 -42.542 -95.0146 -95.0137 -95.0146l-320.174 -0.398438c-52.9189 0 -95.8135 42.8955 -95.8135 95.8135c0 42.7246 27.9658 78.8994 66.5859 91.2549 c-1.77051 8.47559 -2.71094 17.25 -2.71094 26.249c0 70.5527 57.1963 123.491 127.75 123.491c44.0508 0 82.8906 -20.6396 105.859 -53.3135c12.6709 6.84473 27.4004 10.7295 43.1826 10.7295c47.0371 0 85.166 -33.8711 85.166 -80.9082 c0 -8.03125 -1.19043 -15.7705 -3.26855 -23.1387zM416.448 14.8037c35.9922 0 65.2432 29.251 65.2422 65.2051c0 34.1318 -26.6475 62.6982 -60.6602 65.0264c-8.95703 0.611328 -17.1621 5.22852 -22.3359 12.5713c-5.16895 7.33984 -6.75684 16.6182 -4.32031 25.2607 c1.42578 5.05273 2.15039 10.1143 2.15039 15.0439c0 29.1328 -23.7998 51.0996 -55.3584 51.0996c-10.3271 0 -20.3613 -2.4707 -29.0146 -7.14551c-4.48633 -2.42383 -9.34375 -3.58398 -14.1475 -3.58398c-9.42969 0 -18.6455 4.47656 -24.4062 12.6689 c-17.8916 25.4512 -48.3486 40.6455 -81.4736 40.6455c-54.9199 0 -97.9424 -41.1514 -97.9424 -93.6836c0 -6.76562 0.702148 -13.5449 2.08203 -20.1504c3.12305 -14.9443 -5.55176 -29.8369 -20.0957 -34.4873c-27.4287 -8.77441 -45.8604 -34.0381 -45.8604 -62.8643 c0 -36.3965 29.6084 -66.0049 66.0039 -66.0049zM334.787 74.5625c1.25195 -2.58691 2.1543 -5.31152 2.71582 -8.18066v-24.2979h-163.006v24.2979c0.639648 2.86914 1.58008 5.59375 2.82812 8.18066c1.04785 2.2627 2.48633 4.41602 4.30762 6.5498 c1.81348 2.14551 4.14648 3.72168 7.0166 4.78125c1.46777 0.482422 47.2119 19.8789 49.3779 20.8477v7.02734c-0.146484 0.553711 -0.366211 1.41895 -0.678711 2.57422c-0.319336 1.15137 -0.644531 2.31641 -1.01074 3.51074 c-0.407227 1.38477 -0.902344 2.88965 -1.45898 4.50781c-2.02051 3.77441 -3.62988 8.04297 -4.82422 12.8369c-1.18555 4.78711 -1.7793 9.87305 -1.7793 15.2451c0 7.06836 0.75293 13.041 2.25 17.9316c1.51367 4.89844 3.55566 8.87891 6.1416 11.9473 c2.58301 3.07324 5.60547 5.31836 9.06543 6.71191c3.46387 1.40625 7.17383 2.0918 11.1572 2.0918c3.9209 0 7.60645 -0.665039 11.0615 -2.03711c3.46875 -1.36816 6.49609 -3.56738 9.11621 -6.59961c2.62793 -3.04395 4.68262 -7.02832 6.19043 -11.96 c1.51465 -4.91602 2.24609 -10.958 2.24609 -18.0859c0 -5.24316 -0.564453 -10.209 -1.72168 -14.9297c-1.15234 -4.72852 -2.74902 -8.96582 -4.77051 -12.75c-0.557617 -1.7373 -1.08203 -3.37695 -1.57129 -4.91016 c-0.419922 -1.33984 -0.807617 -2.61133 -1.15625 -3.81738c-0.350586 -1.23926 -0.523438 -2.13379 -0.523438 -2.6875v-7.33203c2.24121 -0.980469 31.8096 -13.7803 34.5996 -14.9531c2.79004 -1.13965 18.3096 -7.80566 20.127 -9.95117 c1.82129 -2.13379 3.24414 -4.28809 4.2998 -6.5498z"></glyph><glyph glyph-name="cld-user" unicode="&#xe06b;" d="M423.064 174.773c49.4033 -3.38086 88.4355 -44.5039 88.4365 -94.7646c0 -52.4727 -42.542 -95.0146 -95.0137 -95.0146l-320.174 -0.398438c-52.9189 0 -95.8135 42.8955 -95.8135 95.8135c0 42.7246 27.9658 78.8994 66.5859 91.2549 c-1.77051 8.47559 -2.71094 17.25 -2.71094 26.249c0 70.5527 57.1963 123.491 127.75 123.491c44.0508 0 82.8906 -20.6396 105.859 -53.3135c12.6709 6.84473 27.4004 10.7295 43.1826 10.7295c47.0371 0 85.166 -33.8711 85.166 -80.9082 c0 -8.03125 -1.19043 -15.7705 -3.26855 -23.1387zM349.146 31.4375l0.000976562 27.7705c-0.639648 3.27734 -1.67578 6.3916 -3.10645 9.34766c-1.20605 2.58301 -2.83105 5.04785 -4.91113 7.48535c-2.0791 2.4502 -19.8154 10.0684 -23.0049 11.374 c-3.18848 1.33887 -36.9766 15.9688 -39.5391 17.0869v8.37988c0 0.630859 0.200195 1.65527 0.599609 3.06934c0.398438 1.37988 0.839844 2.83594 1.32129 4.36621c0.558594 1.75098 1.15625 3.62598 1.79688 5.6084c2.30762 4.3252 4.13477 9.16992 5.44727 14.5723 c1.32422 5.39355 1.97168 11.0703 1.97168 17.0615c0 8.14746 -0.839844 15.0547 -2.56934 20.668c-1.72168 5.63965 -4.07129 10.1924 -7.07324 13.6689c-2.99414 3.46973 -6.4541 5.98145 -10.4219 7.54492c-3.94727 1.56641 -8.15918 2.32812 -12.6387 2.32812 c-4.55273 0 -8.79492 -0.786133 -12.7539 -2.3916c-3.95508 -1.59277 -7.41016 -4.1582 -10.3584 -7.66797c-2.95703 -3.50977 -5.29004 -8.05859 -7.02051 -13.6572c-1.71289 -5.58887 -2.57324 -12.4131 -2.57324 -20.4932c0 -6.1377 0.682617 -11.9502 2.03711 -17.4238 c1.36426 -5.47656 3.20215 -10.3545 5.51074 -14.6709c0.639648 -1.8457 1.20605 -3.56836 1.66699 -5.14746c0.419922 -1.36523 0.790039 -2.69629 1.15527 -4.01465c0.357422 -1.32129 0.607422 -2.30664 0.777344 -2.93848v-8.03418 c-2.47852 -1.10645 -54.7559 -23.2715 -56.4355 -23.8242c-3.27734 -1.20996 -5.94336 -3.01465 -8.01855 -5.46484c-2.0791 -2.43555 -3.72559 -4.90234 -4.92285 -7.48535c-1.42578 -2.95605 -2.49902 -6.07129 -3.23145 -9.34766v-27.7705h186.294z"></glyph><glyph glyph-name="cld-delete" unicode="&#xe06c;" d="M423.064 174.773c49.4033 -3.38086 88.4355 -44.5039 88.4365 -94.7646c0 -52.4727 -42.542 -95.0146 -95.0137 -95.0146l-320.174 -0.398438c-52.9189 0 -95.8135 42.8955 -95.8135 95.8135c0 42.7246 27.9658 78.8994 66.5859 91.2549 c-1.77051 8.47559 -2.71094 17.25 -2.71094 26.249c0 70.5527 57.1963 123.491 127.75 123.491c44.0508 0 82.8906 -20.6396 105.859 -53.3135c12.6709 6.84473 27.4004 10.7295 43.1826 10.7295c47.0371 0 85.166 -33.8711 85.166 -80.9082 c0 -8.03125 -1.19043 -15.7705 -3.26855 -23.1387zM341.167 70.166l-42.5879 42.5791l42.5879 42.5791l-42.5879 42.5879l-42.583 -42.5879l-42.5752 42.5879l-42.5869 -42.5879l42.5869 -42.5791l-42.5869 -42.5791l42.5869 -42.5869l42.5752 42.5869l42.583 -42.5869z"></glyph><glyph glyph-name="cld2-delete" unicode="&#xe06d;" d="M423.064 174.773c49.4033 -3.38086 88.4355 -44.5039 88.4365 -94.7646c0 -52.4727 -42.542 -95.0146 -95.0137 -95.0146l-320.174 -0.398438c-52.9189 0 -95.8135 42.8955 -95.8135 95.8135c0 42.7246 27.9658 78.8994 66.5859 91.2549 c-1.77051 8.47559 -2.71094 17.25 -2.71094 26.249c0 70.5527 57.1963 123.491 127.75 123.491c44.0508 0 82.8906 -20.6396 105.859 -53.3135c12.6709 6.84473 27.4004 10.7295 43.1826 10.7295c47.0371 0 85.166 -33.8711 85.166 -80.9082 c0 -8.03125 -1.19043 -15.7705 -3.26855 -23.1387zM416.448 14.8037c35.9922 0 65.2432 29.251 65.2422 65.2051c0 34.1318 -26.6475 62.6982 -60.6602 65.0264c-8.95703 0.611328 -17.1621 5.22852 -22.3359 12.5713c-5.16895 7.33984 -6.75684 16.6182 -4.32031 25.2607 c1.42578 5.05273 2.15039 10.1133 2.15039 15.0439c0 29.1328 -23.7998 51.0996 -55.3584 51.0996c-10.3271 0 -20.3613 -2.4707 -29.0146 -7.14551c-4.48633 -2.42383 -9.34375 -3.58398 -14.1475 -3.58398c-9.42969 0 -18.6455 4.47656 -24.4062 12.6689 c-17.8916 25.4512 -48.3486 40.6445 -81.4736 40.6445c-54.9199 0 -97.9424 -41.1504 -97.9424 -93.6826c0 -6.76562 0.702148 -13.5449 2.08203 -20.1504c3.12305 -14.9443 -5.55176 -29.8369 -20.0957 -34.4873c-27.4287 -8.77441 -45.8604 -34.0381 -45.8604 -62.8643 c0 -36.3965 29.6084 -66.0049 66.0039 -66.0049zM330.521 150.002l-37.2656 -37.2568l37.2656 -37.2559l-37.2656 -37.2656l-37.2598 37.2656l-37.252 -37.2656l-37.2656 37.2656l37.2656 37.2559l-37.2656 37.2568l37.2656 37.2637l37.252 -37.2637l37.2598 37.2637z"></glyph><glyph glyph-name="user-download" unicode="&#xe06e;" d="M256 78.8867h82.6094v132.666h90.2842v-132.666h82.6064l-127.75 -154.772zM229.727 57.2002l53.4014 -64.6963h-282.626v63.4961c1.65527 7.48145 4.0957 14.6055 7.38086 21.3623c2.74023 5.8877 6.49512 11.5361 11.2363 17.1035 c4.75684 5.59277 10.8535 9.73535 18.3428 12.4922c3.83789 1.26465 123.329 51.9277 128.989 54.4766v18.3604c-0.353516 1.43652 -0.952148 3.69043 -1.7627 6.70312c-0.845703 3.01562 -1.69336 6.06836 -2.62012 9.18457 c-1.07324 3.62207 -2.375 7.55469 -3.82617 11.7676c-5.28906 9.85645 -9.49805 21.0156 -12.6006 33.5283c-3.10156 12.5088 -4.66992 25.7988 -4.66992 39.8525c0 18.4521 1.98047 34.0654 5.88965 46.834c3.94629 12.7891 9.27734 23.1855 16.0518 31.207 c6.7373 8.03906 14.6299 13.8955 23.6826 17.5352c9.02832 3.67188 18.7383 5.47656 29.1553 5.47656c10.2305 0 19.8486 -1.75098 28.8809 -5.33984c9.0498 -3.56738 16.9795 -9.30176 23.8252 -17.2393c6.8584 -7.95312 12.2256 -18.3486 16.1719 -31.2373 c3.93945 -12.8418 5.88867 -28.6279 5.88867 -47.2354c0 -13.7061 -1.50977 -26.6816 -4.52051 -39.0205c-3.01855 -12.3369 -7.18164 -23.4102 -12.4629 -33.3047c-1.45996 -4.52051 -2.83594 -8.81836 -4.0957 -12.8223 c-1.10352 -3.5 -2.11426 -6.82617 -3.02051 -9.97852c-0.922852 -3.24121 -1.36816 -5.58105 -1.36816 -7.02148v-19.1533c2.68262 -1.1709 20.4023 -8.84961 39.4941 -17.1123v-29.4658h-48.543c-13.1885 0 -25.1943 -7.61426 -30.8174 -19.5449 c-5.62305 -11.9316 -3.85254 -26.0361 4.54297 -36.208z"></glyph><glyph glyph-name="user-restrict" unicode="&#xe06f;" d="M405.042 142.354c58.7969 0 106.458 -47.6641 106.458 -106.459c0 -58.793 -47.6611 -106.458 -106.458 -106.458c-58.7979 0 -106.459 47.665 -106.459 106.458c0 58.7949 47.6611 106.459 106.459 106.459zM332.65 35.8965 c0 -12.0684 3.01074 -23.4385 8.25391 -33.4512l97.5889 97.5889c-10.0127 5.24316 -21.3838 8.25391 -33.4512 8.25391c-39.918 0 -72.3916 -32.4736 -72.3916 -72.3916zM405.042 -36.4961c39.917 0 72.3916 32.4746 72.3906 72.3906 c0 12.377 -3.13184 24.0254 -8.625 34.2256l-97.9902 -97.9912c10.1963 -5.49316 21.8486 -8.625 34.2246 -8.625zM273.233 -12.8174h-272.733v63.4971c1.65527 7.48047 4.0957 14.6045 7.38086 21.3623c2.74121 5.88867 6.49609 11.5352 11.2363 17.1045 c4.75684 5.59375 10.8535 9.73438 18.3428 12.4912c3.83789 1.26562 123.329 51.9287 128.989 54.4775v18.3594c-0.354492 1.43945 -0.952148 3.69336 -1.76367 6.7041c-0.844727 3.01562 -1.69238 6.06738 -2.61914 9.18262 c-1.07324 3.62598 -2.375 7.55566 -3.82617 11.7686c-5.29004 9.85547 -9.49805 21.0176 -12.6006 33.5283c-3.10254 12.5088 -4.66992 25.7988 -4.66992 39.8525c0 18.4512 1.97949 34.0645 5.88965 46.833c3.94531 12.79 9.27637 23.1865 16.0518 31.208 c6.7373 8.03906 14.6299 13.8965 23.6826 17.5352c9.02832 3.67188 18.7383 5.47754 29.1562 5.47754c10.2295 0 19.8486 -1.75195 28.8809 -5.33984c9.04883 -3.56738 16.9795 -9.30273 23.8242 -17.2383c6.85742 -7.95312 12.2256 -18.3506 16.1719 -31.2393 c3.93848 -12.8418 5.88867 -28.627 5.88867 -47.2354c0 -13.707 -1.50977 -26.6826 -4.52051 -39.0205c-3.01953 -12.3359 -7.18164 -23.4111 -12.4629 -33.3037c-1.45996 -4.52441 -2.83594 -8.82031 -4.09668 -12.8252 c-1.10254 -3.49805 -2.1123 -6.82422 -3.01953 -9.97754c-0.922852 -3.23828 -1.36816 -5.58105 -1.36816 -7.02246v-19.1543c2.78613 -1.20996 21.7617 -9.43555 41.6602 -18.0479c-26.0117 -25.5176 -42.1924 -61.0312 -42.1924 -100.263 c0.000976562 -17.1221 3.08691 -33.5273 8.71777 -48.7148z"></glyph><glyph glyph-name="geo-oval" unicode="&#xe070;" d="M449.827 108.948c0 -141.11 -87.2217 -211.448 -193.827 -211.448c-104.841 0 -193.827 70.3379 -193.827 211.448c0 141.108 106.604 299.552 193.827 299.552c88.1035 0 193.827 -158.443 193.827 -299.552z"></glyph><glyph glyph-name="geo-ellipse" unicode="&#xe071;" d="M449.827 153c0 -141.11 -77.0488 -255.5 -193.827 -255.5c-116.78 0 -193.827 114.39 -193.827 255.5c0 141.108 77.0469 255.5 193.827 255.5c116.778 0 193.827 -114.392 193.827 -255.5z"></glyph><glyph glyph-name="geo-curvitri" unicode="&#xe072;" d="M256.002 -70.5625c-88.5576 0 -174.174 10.4873 -255.502 29.6914c34.5781 161.011 125.675 305.257 255.502 417.434c129.827 -112.177 220.92 -256.423 255.498 -417.433c-81.332 -19.2041 -166.948 -29.6924 -255.498 -29.6924z"></glyph><glyph glyph-name="geo-circle" unicode="&#xe073;" d="M511.5 153c0 -141.107 -114.393 -255.5 -255.5 -255.5c-141.109 0 -255.5 114.393 -255.5 255.5c0 141.109 114.391 255.5 255.5 255.5c141.107 0 255.5 -114.391 255.5 -255.5z"></glyph><glyph glyph-name="geo-trifoil" unicode="&#xe074;" d="M511.5 78.4785c0 -94.0732 -76.2588 -170.334 -170.333 -170.334c-31.04 0 -60.1074 8.34375 -85.167 22.8486c-25.0586 -14.5049 -54.1309 -22.8486 -85.167 -22.8486c-94.0742 0.00195312 -170.333 76.2607 -170.333 170.334 c0 63.0527 34.2871 118.062 85.2041 147.513c-0.00390625 0.510742 -0.0380859 1.0166 -0.0380859 1.53027c0 94.0703 76.2588 170.332 170.333 170.332s170.333 -76.2617 170.333 -170.332c0 -0.514648 -0.0332031 -1.02051 -0.0371094 -1.53027 c50.918 -29.4512 85.2051 -84.46 85.2051 -147.513z"></glyph><glyph glyph-name="geo-paralel" unicode="&#xe075;" d="M426.333 -59.917h-425.833l85.167 425.834h425.833z"></glyph><glyph glyph-name="geo-square" unicode="&#xe076;" d="M511.5 -102.5h-511v511h511v-511z"></glyph><glyph glyph-name="geo-rectangle" unicode="&#xe077;" d="M511.5 -17.333h-511v340.666h511v-340.666z"></glyph><glyph glyph-name="geo-trapezoid" unicode="&#xe078;" d="M511.5 -17.333h-511l85.167 340.666h340.667z"></glyph><glyph glyph-name="geo-trapezium" unicode="&#xe079;" d="M511.5 -17.333h-511v340.666h425.833z"></glyph><glyph glyph-name="geo-gothic" unicode="&#xe07a;" d="M0.5 -59.917c37.0068 164.013 127.692 310.915 255.504 425.834c127.809 -114.919 218.489 -261.821 255.496 -425.834h-511z"></glyph><glyph glyph-name="geo-triangle" unicode="&#xe07b;" d="M0.5 -51.4004l255.5 408.801l255.5 -408.801h-511z"></glyph><glyph glyph-name="geo-righttri" unicode="&#xe07c;" d="M0.5 -51.4004v408.801l511 -408.802z"></glyph><glyph glyph-name="geo-kite" unicode="&#xe07d;" d="M432.207 214.672l-176.207 -317.172l-176.207 317.172l176.207 193.828z"></glyph><glyph glyph-name="geo-rhombus" unicode="&#xe07e;" d="M432.207 161.811l-176.207 -264.311l-176.207 264.311l176.207 246.689z"></glyph><glyph glyph-name="geo-diamond" unicode="&#xe07f;" d="M511.5 165.166l-255.5 -267.666l-255.5 267.666l255.5 243.334z"></glyph><glyph glyph-name="geo-pentagon" unicode="&#xe080;" d="M98.0908 -91.8574l-97.5908 302.66l255.5 187.055l255.5 -187.056l-97.5908 -302.66z"></glyph><glyph glyph-name="geo-hexagon" unicode="&#xe081;" d="M128.25 -68.2695l-127.75 221.27l127.75 221.269h255.5l127.75 -221.269l-127.75 -221.27h-255.5z"></glyph><glyph glyph-name="geo-octagon" unicode="&#xe082;" d="M150.171 -102.501l-149.671 149.671v211.663l149.671 149.668h211.663l149.666 -149.668v-211.663l-149.666 -149.671h-211.663z"></glyph><glyph glyph-name="geo-nonagon" unicode="&#xe083;" d="M167.265 -98.6201l-135.947 114.076l-30.8174 174.774l88.7314 153.692l166.769 60.6973l166.765 -60.6973l88.7354 -153.692l-30.8174 -174.774l-135.947 -114.076h-177.471z"></glyph><glyph glyph-name="geo-heptagon" unicode="&#xe084;" d="M142.291 -96.0947l-141.791 177.803l50.6006 221.714l204.899 98.6729l204.899 -98.6729l50.6006 -221.714l-141.791 -177.803h-227.418z"></glyph><glyph glyph-name="geo-decagon" unicode="&#xe085;" d="M177.05 -89.9951l-127.75 92.8184l-48.7998 150.177l48.7998 150.179l127.75 92.8164h157.9l127.75 -92.8164l48.7998 -150.179l-48.7998 -150.177l-127.75 -92.8184h-157.9z"></glyph><glyph glyph-name="geo-halfcir-01" unicode="&#xe086;" d="M383.75 -102.5c-141.109 0 -255.5 114.393 -255.5 255.5c0 141.109 114.391 255.5 255.5 255.5v-511z"></glyph><glyph glyph-name="geo-halfcir-02" unicode="&#xe087;" d="M128.25 408.5c141.107 0 255.5 -114.391 255.5 -255.5c0 -141.107 -114.393 -255.5 -255.5 -255.5v511z"></glyph><glyph glyph-name="geo-halfcir-03" unicode="&#xe088;" d="M0.5 25.25c0 141.109 114.391 255.5 255.5 255.5c141.107 0 255.5 -114.391 255.5 -255.5h-511z"></glyph><glyph glyph-name="geo-quacir-01" unicode="&#xe089;" d="M511.5 -102.5h-511c0 282.218 228.782 511 511 511v-511z"></glyph><glyph glyph-name="geo-halfcir-04" unicode="&#xe08a;" d="M511.5 280.75c0 -141.107 -114.393 -255.5 -255.5 -255.5c-141.109 0 -255.5 114.393 -255.5 255.5h511z"></glyph><glyph glyph-name="geo-quacir-02" unicode="&#xe08b;" d="M0.5 -102.5v511c282.218 0 511 -228.782 511 -511h-511z"></glyph><glyph glyph-name="geo-quacir-03" unicode="&#xe08c;" d="M511.5 408.5v-511c-282.218 0 -511 228.782 -511 511h511z"></glyph><glyph glyph-name="geo-quacir04" unicode="&#xe08d;" d="M0.5 408.5h511c0 -282.218 -228.782 -511 -511 -511v511z"></glyph><glyph glyph-name="geo-quadrilateral" unicode="&#xe08e;" d="M511.5 -49.2715l-511 149.043v255.5l511 -149.043v-255.5z"></glyph><glyph glyph-name="geo-peakhead" unicode="&#xe08f;" d="M468.917 216.875v-319.375h-425.834v319.375l212.917 191.625z"></glyph><glyph glyph-name="geo-rakehead" unicode="&#xe090;" d="M478.174 -102.5h-444.348v511l444.348 -177.739v-333.261z"></glyph><glyph glyph-name="geo-circle-br" unicode="&#xe091;" d="M256 374.433c-122.099 0 -221.433 -99.334 -221.433 -221.433s99.334 -221.434 221.433 -221.434s221.434 99.335 221.434 221.434s-99.335 221.433 -221.434 221.433zM256 408.5v0c141.107 0 255.5 -114.391 255.5 -255.5c0 -141.107 -114.393 -255.5 -255.5 -255.5 c-141.109 0 -255.5 114.393 -255.5 255.5c0 141.109 114.391 255.5 255.5 255.5z"></glyph><glyph glyph-name="geo-oval-br" unicode="&#xe092;" d="M256 380.307c-30.8965 0 -72.5234 -33.0225 -106.049 -84.1289c-37.3115 -56.8799 -59.5859 -126.871 -59.5859 -187.229c0 -58.5781 17.0488 -106.529 49.3047 -138.667c29.2734 -29.1699 69.5 -44.5879 116.329 -44.5879c47.4463 0 87.876 15.3965 116.93 44.5254 c31.8623 31.9453 48.7051 79.9199 48.7051 138.729c0 60.5068 -22.1602 130.51 -59.2764 187.259c-33.9268 51.874 -74.6816 84.0986 -106.357 84.0986zM256 408.5v0c88.1035 0 193.827 -158.443 193.827 -299.552c0 -141.11 -87.2217 -211.448 -193.827 -211.448 c-104.841 0 -193.827 70.3379 -193.827 211.448c0 141.108 106.604 299.552 193.827 299.552z"></glyph><glyph glyph-name="geo-ellipse-br" unicode="&#xe093;" d="M256 380.307c-59.1826 0 -96.8135 -34.4219 -117.96 -63.2988c-30.7432 -41.9805 -47.6738 -100.226 -47.6738 -164.008s16.9307 -122.026 47.6738 -164.009c21.1465 -28.875 58.7773 -63.2969 117.96 -63.2969c59.1807 0 96.8154 34.4219 117.962 63.2969 c30.7402 41.9834 47.6729 100.228 47.6729 164.01s-16.9326 122.027 -47.6729 164.008c-21.1475 28.876 -58.7812 63.2979 -117.962 63.2979zM256 408.5v0c116.778 0 193.827 -114.392 193.827 -255.5c0 -141.11 -77.0488 -255.5 -193.827 -255.5 c-116.78 0 -193.827 114.39 -193.827 255.5c0 141.108 77.0469 255.5 193.827 255.5z"></glyph></font>
</defs>
</svg>
